<?xml version="1.0" encoding="us-ascii" standalone="no"?><svg xmlns="http://www.w3.org/2000/svg" xmlns:xlink="http://www.w3.org/1999/xlink" contentStyleType="text/css" height="1447px" preserveAspectRatio="none" style="width:744px;height:1447px;background:#FFFFFF;" version="1.1" viewBox="0 0 744 1447" width="744px" zoomAndPan="magnify"><defs/><g><!--class Color--><g id="elem_Color"><rect codeLine="2" fill="#F1F1F1" height="136.0469" id="Color" rx="2.5" ry="2.5" style="stroke:#181818;stroke-width:0.5;" width="76" x="397.5" y="1304"/><ellipse cx="417" cy="1320" fill="#EB937F" rx="11" ry="11" style="stroke:#181818;stroke-width:1.0;"/><path d="M415.8594,1320.7969 L415.8594,1323.2969 L420.1875,1323.2969 L420.1875,1322.375 Q420.1875,1321.7656 420.4219,1321.5 Q420.6719,1321.2344 421.0469,1321.2344 Q421.4219,1321.2344 421.6563,1321.5 Q421.8906,1321.7656 421.8906,1322.375 L421.8906,1325 L413.8906,1325 Q413.2656,1325 413,1324.7656 Q412.75,1324.5313 412.75,1324.1406 Q412.75,1323.7656 413.0156,1323.5313 Q413.2813,1323.2969 413.8906,1323.2969 L414.1563,1323.2969 L414.1563,1316.6406 L413.8906,1316.6406 Q413.2656,1316.6406 413,1316.4063 Q412.75,1316.1719 412.75,1315.7813 Q412.75,1315.4063 413,1315.1719 Q413.2656,1314.9375 413.8906,1314.9375 L421.5156,1314.9375 L421.5156,1317.5313 Q421.5156,1318.1406 421.2813,1318.4063 Q421.0625,1318.6563 420.6719,1318.6563 Q420.2969,1318.6563 420.0625,1318.4063 Q419.8281,1318.1406 419.8281,1317.5313 L419.8281,1316.6406 L415.8594,1316.6406 L415.8594,1319.0938 L417.3438,1319.0938 Q417.3438,1318.4375 417.4688,1318.25 Q417.7344,1317.8438 418.2031,1317.8438 Q418.5781,1317.8438 418.8125,1318.1094 Q419.0469,1318.3594 419.0469,1318.9688 L419.0469,1320.9375 Q419.0469,1321.4844 418.9219,1321.6719 Q418.6563,1322.0625 418.2031,1322.0625 Q417.7344,1322.0625 417.4688,1321.6563 Q417.3438,1321.4688 417.3438,1320.7969 L415.8594,1320.7969 Z " fill="#000000"/><text fill="#000000" font-family="sans-serif" font-size="14" lengthAdjust="spacing" textLength="34" x="432" y="1325.7285">Color</text><line style="stroke:#181818;stroke-width:0.5;" x1="398.5" x2="472.5" y1="1336" y2="1336"/><text fill="#000000" font-family="sans-serif" font-size="14" lengthAdjust="spacing" textLength="35" x="403.5" y="1354.5332">BLUE</text><text fill="#000000" font-family="sans-serif" font-size="14" lengthAdjust="spacing" textLength="29" x="403.5" y="1372.1426">RED</text><text fill="#000000" font-family="sans-serif" font-size="14" lengthAdjust="spacing" textLength="58" x="403.5" y="1389.752">YELLOW</text><text fill="#000000" font-family="sans-serif" font-size="14" lengthAdjust="spacing" textLength="48" x="403.5" y="1407.3613">GREEN</text><text fill="#000000" font-family="sans-serif" font-size="14" lengthAdjust="spacing" textLength="64" x="403.5" y="1424.9707">RAINBOW</text><line style="stroke:#181818;stroke-width:0.5;" x1="398.5" x2="472.5" y1="1432.0469" y2="1432.0469"/></g><!--class Shape--><g id="elem_Shape"><rect codeLine="10" fill="#F1F1F1" height="118.4375" id="Shape" rx="2.5" ry="2.5" style="stroke:#181818;stroke-width:0.5;" width="80" x="255.5" y="1313"/><ellipse cx="273.65" cy="1329" fill="#EB937F" rx="11" ry="11" style="stroke:#181818;stroke-width:1.0;"/><path d="M272.5094,1329.7969 L272.5094,1332.2969 L276.8375,1332.2969 L276.8375,1331.375 Q276.8375,1330.7656 277.0719,1330.5 Q277.3219,1330.2344 277.6969,1330.2344 Q278.0719,1330.2344 278.3063,1330.5 Q278.5406,1330.7656 278.5406,1331.375 L278.5406,1334 L270.5406,1334 Q269.9156,1334 269.65,1333.7656 Q269.4,1333.5313 269.4,1333.1406 Q269.4,1332.7656 269.6656,1332.5313 Q269.9313,1332.2969 270.5406,1332.2969 L270.8063,1332.2969 L270.8063,1325.6406 L270.5406,1325.6406 Q269.9156,1325.6406 269.65,1325.4063 Q269.4,1325.1719 269.4,1324.7813 Q269.4,1324.4063 269.65,1324.1719 Q269.9156,1323.9375 270.5406,1323.9375 L278.1656,1323.9375 L278.1656,1326.5313 Q278.1656,1327.1406 277.9313,1327.4063 Q277.7125,1327.6563 277.3219,1327.6563 Q276.9469,1327.6563 276.7125,1327.4063 Q276.4781,1327.1406 276.4781,1326.5313 L276.4781,1325.6406 L272.5094,1325.6406 L272.5094,1328.0938 L273.9938,1328.0938 Q273.9938,1327.4375 274.1188,1327.25 Q274.3844,1326.8438 274.8531,1326.8438 Q275.2281,1326.8438 275.4625,1327.1094 Q275.6969,1327.3594 275.6969,1327.9688 L275.6969,1329.9375 Q275.6969,1330.4844 275.5719,1330.6719 Q275.3063,1331.0625 274.8531,1331.0625 Q274.3844,1331.0625 274.1188,1330.6563 Q273.9938,1330.4688 273.9938,1329.7969 L272.5094,1329.7969 Z " fill="#000000"/><text fill="#000000" font-family="sans-serif" font-size="14" lengthAdjust="spacing" textLength="41" x="288.35" y="1334.7285">Shape</text><line style="stroke:#181818;stroke-width:0.5;" x1="256.5" x2="334.5" y1="1345" y2="1345"/><text fill="#000000" font-family="sans-serif" font-size="14" lengthAdjust="spacing" textLength="68" x="261.5" y="1363.5332">TRIANGLE</text><text fill="#000000" font-family="sans-serif" font-size="14" lengthAdjust="spacing" textLength="57" x="261.5" y="1381.1426">SQUARE</text><text fill="#000000" font-family="sans-serif" font-size="14" lengthAdjust="spacing" textLength="50" x="261.5" y="1398.752">CIRCLE</text><text fill="#000000" font-family="sans-serif" font-size="14" lengthAdjust="spacing" textLength="37" x="261.5" y="1416.3613">STAR</text><line style="stroke:#181818;stroke-width:0.5;" x1="256.5" x2="334.5" y1="1423.4375" y2="1423.4375"/></g><!--class Direction--><g id="elem_Direction"><rect codeLine="17" fill="#F1F1F1" height="118.4375" id="Direction" rx="2.5" ry="2.5" style="stroke:#181818;stroke-width:0.5;" width="88" x="58.5" y="1117"/><ellipse cx="73.5" cy="1133" fill="#EB937F" rx="11" ry="11" style="stroke:#181818;stroke-width:1.0;"/><path d="M72.3594,1133.7969 L72.3594,1136.2969 L76.6875,1136.2969 L76.6875,1135.375 Q76.6875,1134.7656 76.9219,1134.5 Q77.1719,1134.2344 77.5469,1134.2344 Q77.9219,1134.2344 78.1563,1134.5 Q78.3906,1134.7656 78.3906,1135.375 L78.3906,1138 L70.3906,1138 Q69.7656,1138 69.5,1137.7656 Q69.25,1137.5313 69.25,1137.1406 Q69.25,1136.7656 69.5156,1136.5313 Q69.7813,1136.2969 70.3906,1136.2969 L70.6563,1136.2969 L70.6563,1129.6406 L70.3906,1129.6406 Q69.7656,1129.6406 69.5,1129.4063 Q69.25,1129.1719 69.25,1128.7813 Q69.25,1128.4063 69.5,1128.1719 Q69.7656,1127.9375 70.3906,1127.9375 L78.0156,1127.9375 L78.0156,1130.5313 Q78.0156,1131.1406 77.7813,1131.4063 Q77.5625,1131.6563 77.1719,1131.6563 Q76.7969,1131.6563 76.5625,1131.4063 Q76.3281,1131.1406 76.3281,1130.5313 L76.3281,1129.6406 L72.3594,1129.6406 L72.3594,1132.0938 L73.8438,1132.0938 Q73.8438,1131.4375 73.9688,1131.25 Q74.2344,1130.8438 74.7031,1130.8438 Q75.0781,1130.8438 75.3125,1131.1094 Q75.5469,1131.3594 75.5469,1131.9688 L75.5469,1133.9375 Q75.5469,1134.4844 75.4219,1134.6719 Q75.1563,1135.0625 74.7031,1135.0625 Q74.2344,1135.0625 73.9688,1134.6563 Q73.8438,1134.4688 73.8438,1133.7969 L72.3594,1133.7969 Z " fill="#000000"/><text fill="#000000" font-family="sans-serif" font-size="14" lengthAdjust="spacing" textLength="56" x="87.5" y="1138.7285">Direction</text><line style="stroke:#181818;stroke-width:0.5;" x1="59.5" x2="145.5" y1="1149" y2="1149"/><text fill="#000000" font-family="sans-serif" font-size="14" lengthAdjust="spacing" textLength="18" x="64.5" y="1167.5332">UP</text><text fill="#000000" font-family="sans-serif" font-size="14" lengthAdjust="spacing" textLength="43" x="64.5" y="1185.1426">DOWN</text><text fill="#000000" font-family="sans-serif" font-size="14" lengthAdjust="spacing" textLength="35" x="64.5" y="1202.752">LEFT</text><text fill="#000000" font-family="sans-serif" font-size="14" lengthAdjust="spacing" textLength="42" x="64.5" y="1220.3613">RIGHT</text><line style="stroke:#181818;stroke-width:0.5;" x1="59.5" x2="145.5" y1="1227.4375" y2="1227.4375"/></g><!--class Tile--><g id="elem_Tile"><rect codeLine="24" fill="#F1F1F1" height="136.0469" id="Tile" rx="2.5" ry="2.5" style="stroke:#181818;stroke-width:0.5;" width="228" x="181.5" y="1108"/><ellipse cx="279.75" cy="1124" fill="#ADD1B2" rx="11" ry="11" style="stroke:#181818;stroke-width:1.0;"/><path d="M282.5156,1119.875 Q282.6719,1119.6563 282.8594,1119.5469 Q283.0469,1119.4375 283.2656,1119.4375 Q283.6406,1119.4375 283.875,1119.7031 Q284.1094,1119.9531 284.1094,1120.5625 L284.1094,1122.0156 Q284.1094,1122.625 283.875,1122.8906 Q283.6406,1123.1563 283.2656,1123.1563 Q282.9219,1123.1563 282.7188,1122.9531 Q282.5156,1122.7656 282.4063,1122.25 Q282.3594,1121.8906 282.1719,1121.7031 Q281.8438,1121.3281 281.2344,1121.1094 Q280.625,1120.8906 280,1120.8906 Q279.2344,1120.8906 278.5938,1121.2188 Q277.9688,1121.5469 277.4688,1122.2969 Q276.9844,1123.0469 276.9844,1124.0781 L276.9844,1125.1719 Q276.9844,1126.4063 277.875,1127.2344 Q278.7656,1128.0469 280.3594,1128.0469 Q281.2969,1128.0469 281.9531,1127.7969 Q282.3438,1127.6406 282.7656,1127.2031 Q283.0313,1126.9375 283.1719,1126.8594 Q283.3281,1126.7813 283.5313,1126.7813 Q283.8594,1126.7813 284.1094,1127.0469 Q284.375,1127.2969 284.375,1127.6406 Q284.375,1127.9844 284.0313,1128.3906 Q283.5313,1128.9688 282.7344,1129.2969 Q281.6563,1129.75 280.3594,1129.75 Q278.8438,1129.75 277.6406,1129.125 Q276.6563,1128.625 275.9688,1127.5625 Q275.2813,1126.4844 275.2813,1125.2031 L275.2813,1124.0469 Q275.2813,1122.7188 275.8906,1121.5781 Q276.5156,1120.4219 277.6094,1119.8125 Q278.7031,1119.1875 279.9375,1119.1875 Q280.6719,1119.1875 281.3125,1119.3594 Q281.9688,1119.5156 282.5156,1119.875 Z " fill="#000000"/><text fill="#000000" font-family="sans-serif" font-size="14" lengthAdjust="spacing" textLength="23" x="300.25" y="1129.7285">Tile</text><line style="stroke:#181818;stroke-width:0.5;" x1="182.5" x2="408.5" y1="1140" y2="1140"/><rect fill="none" height="6" style="stroke:#C82930;stroke-width:1.0;" width="6" x="189.5" y="1151.3047"/><text fill="#000000" font-family="sans-serif" font-size="14" lengthAdjust="spacing" textLength="73" x="201.5" y="1158.5332">color: Color</text><rect fill="none" height="6" style="stroke:#C82930;stroke-width:1.0;" width="6" x="189.5" y="1168.9141"/><text fill="#000000" font-family="sans-serif" font-size="14" lengthAdjust="spacing" textLength="88" x="201.5" y="1176.1426">shape: Shape</text><line style="stroke:#181818;stroke-width:0.5;" x1="182.5" x2="408.5" y1="1183.2188" y2="1183.2188"/><ellipse cx="192.5" cy="1197.5234" fill="#84BE84" rx="3" ry="3" style="stroke:#038048;stroke-width:1.0;"/><text fill="#000000" font-family="sans-serif" font-size="14" lengthAdjust="spacing" textLength="202" x="201.5" y="1201.752">Tile(color: Color, shape: Shape)</text><ellipse cx="192.5" cy="1215.1328" fill="#84BE84" rx="3" ry="3" style="stroke:#038048;stroke-width:1.0;"/><text fill="#000000" font-family="sans-serif" font-size="14" lengthAdjust="spacing" textLength="106" x="201.5" y="1219.3613">getColor(): Color</text><ellipse cx="192.5" cy="1232.7422" fill="#84BE84" rx="3" ry="3" style="stroke:#038048;stroke-width:1.0;"/><text fill="#000000" font-family="sans-serif" font-size="14" lengthAdjust="spacing" textLength="120" x="201.5" y="1236.9707">getShape(): Shape</text></g><!--class Frame--><g id="elem_Frame"><rect codeLine="32" fill="#F1F1F1" height="153.6563" id="Frame" rx="2.5" ry="2.5" style="stroke:#181818;stroke-width:0.5;" width="246" x="28.5" y="894"/><ellipse cx="126.75" cy="910" fill="#ADD1B2" rx="11" ry="11" style="stroke:#181818;stroke-width:1.0;"/><path d="M129.5156,905.875 Q129.6719,905.6563 129.8594,905.5469 Q130.0469,905.4375 130.2656,905.4375 Q130.6406,905.4375 130.875,905.7031 Q131.1094,905.9531 131.1094,906.5625 L131.1094,908.0156 Q131.1094,908.625 130.875,908.8906 Q130.6406,909.1563 130.2656,909.1563 Q129.9219,909.1563 129.7188,908.9531 Q129.5156,908.7656 129.4063,908.25 Q129.3594,907.8906 129.1719,907.7031 Q128.8438,907.3281 128.2344,907.1094 Q127.625,906.8906 127,906.8906 Q126.2344,906.8906 125.5938,907.2188 Q124.9688,907.5469 124.4688,908.2969 Q123.9844,909.0469 123.9844,910.0781 L123.9844,911.1719 Q123.9844,912.4063 124.875,913.2344 Q125.7656,914.0469 127.3594,914.0469 Q128.2969,914.0469 128.9531,913.7969 Q129.3438,913.6406 129.7656,913.2031 Q130.0313,912.9375 130.1719,912.8594 Q130.3281,912.7813 130.5313,912.7813 Q130.8594,912.7813 131.1094,913.0469 Q131.375,913.2969 131.375,913.6406 Q131.375,913.9844 131.0313,914.3906 Q130.5313,914.9688 129.7344,915.2969 Q128.6563,915.75 127.3594,915.75 Q125.8438,915.75 124.6406,915.125 Q123.6563,914.625 122.9688,913.5625 Q122.2813,912.4844 122.2813,911.2031 L122.2813,910.0469 Q122.2813,908.7188 122.8906,907.5781 Q123.5156,906.4219 124.6094,905.8125 Q125.7031,905.1875 126.9375,905.1875 Q127.6719,905.1875 128.3125,905.3594 Q128.9688,905.5156 129.5156,905.875 Z " fill="#000000"/><text fill="#000000" font-family="sans-serif" font-size="14" lengthAdjust="spacing" textLength="41" x="147.25" y="915.7285">Frame</text><line style="stroke:#181818;stroke-width:0.5;" x1="29.5" x2="273.5" y1="926" y2="926"/><rect fill="none" height="6" style="stroke:#C82930;stroke-width:1.0;" width="6" x="36.5" y="937.3047"/><text fill="#000000" font-family="sans-serif" font-size="14" lengthAdjust="spacing" textLength="54" x="48.5" y="944.5332">tile: *Tile</text><rect fill="none" height="6" style="stroke:#C82930;stroke-width:1.0;" width="6" x="36.5" y="954.9141"/><text fill="#000000" font-family="sans-serif" font-size="14" lengthAdjust="spacing" textLength="81" x="48.5" y="962.1426">walls: bool[4]</text><line style="stroke:#181818;stroke-width:0.5;" x1="29.5" x2="273.5" y1="969.2188" y2="969.2188"/><ellipse cx="39.5" cy="983.5234" fill="#84BE84" rx="3" ry="3" style="stroke:#038048;stroke-width:1.0;"/><text fill="#000000" font-family="sans-serif" font-size="14" lengthAdjust="spacing" textLength="189" x="48.5" y="987.752">Frame(tile: Tile, walls: bool[4])</text><ellipse cx="39.5" cy="1001.1328" fill="#84BE84" rx="3" ry="3" style="stroke:#038048;stroke-width:1.0;"/><text fill="#000000" font-family="sans-serif" font-size="14" lengthAdjust="spacing" textLength="84" x="48.5" y="1005.3613">getTile(): Tile</text><ellipse cx="39.5" cy="1018.7422" fill="#84BE84" rx="3" ry="3" style="stroke:#038048;stroke-width:1.0;"/><text fill="#000000" font-family="sans-serif" font-size="14" lengthAdjust="spacing" textLength="115" x="48.5" y="1022.9707">getWalls(): bool[4]</text><ellipse cx="39.5" cy="1036.3516" fill="#84BE84" rx="3" ry="3" style="stroke:#038048;stroke-width:1.0;"/><text fill="#000000" font-family="sans-serif" font-size="14" lengthAdjust="spacing" textLength="220" x="48.5" y="1040.5801">canMove(direction: Direction): bool</text></g><!--class QuarterBoard--><g id="elem_QuarterBoard"><rect codeLine="41" fill="#F1F1F1" height="153.6563" id="QuarterBoard" rx="2.5" ry="2.5" style="stroke:#181818;stroke-width:0.5;" width="289" x="7" y="662.5"/><ellipse cx="103.75" cy="678.5" fill="#ADD1B2" rx="11" ry="11" style="stroke:#181818;stroke-width:1.0;"/><path d="M106.5156,674.375 Q106.6719,674.1563 106.8594,674.0469 Q107.0469,673.9375 107.2656,673.9375 Q107.6406,673.9375 107.875,674.2031 Q108.1094,674.4531 108.1094,675.0625 L108.1094,676.5156 Q108.1094,677.125 107.875,677.3906 Q107.6406,677.6563 107.2656,677.6563 Q106.9219,677.6563 106.7188,677.4531 Q106.5156,677.2656 106.4063,676.75 Q106.3594,676.3906 106.1719,676.2031 Q105.8438,675.8281 105.2344,675.6094 Q104.625,675.3906 104,675.3906 Q103.2344,675.3906 102.5938,675.7188 Q101.9688,676.0469 101.4688,676.7969 Q100.9844,677.5469 100.9844,678.5781 L100.9844,679.6719 Q100.9844,680.9063 101.875,681.7344 Q102.7656,682.5469 104.3594,682.5469 Q105.2969,682.5469 105.9531,682.2969 Q106.3438,682.1406 106.7656,681.7031 Q107.0313,681.4375 107.1719,681.3594 Q107.3281,681.2813 107.5313,681.2813 Q107.8594,681.2813 108.1094,681.5469 Q108.375,681.7969 108.375,682.1406 Q108.375,682.4844 108.0313,682.8906 Q107.5313,683.4688 106.7344,683.7969 Q105.6563,684.25 104.3594,684.25 Q102.8438,684.25 101.6406,683.625 Q100.6563,683.125 99.9688,682.0625 Q99.2813,680.9844 99.2813,679.7031 L99.2813,678.5469 Q99.2813,677.2188 99.8906,676.0781 Q100.5156,674.9219 101.6094,674.3125 Q102.7031,673.6875 103.9375,673.6875 Q104.6719,673.6875 105.3125,673.8594 Q105.9688,674.0156 106.5156,674.375 Z " fill="#000000"/><text fill="#000000" font-family="sans-serif" font-size="14" lengthAdjust="spacing" textLength="87" x="124.25" y="684.2285">QuarterBoard</text><line style="stroke:#181818;stroke-width:0.5;" x1="8" x2="295" y1="694.5" y2="694.5"/><rect fill="none" height="6" style="stroke:#C82930;stroke-width:1.0;" width="6" x="15" y="705.8047"/><text fill="#000000" font-family="sans-serif" font-size="14" lengthAdjust="spacing" textLength="34" x="27" y="713.0332">id: int</text><rect fill="none" height="6" style="stroke:#C82930;stroke-width:1.0;" width="6" x="15" y="723.4141"/><text fill="#000000" font-family="sans-serif" font-size="14" lengthAdjust="spacing" textLength="124" x="27" y="730.6426">frames: Frame[8][8]</text><line style="stroke:#181818;stroke-width:0.5;" x1="8" x2="295" y1="737.7188" y2="737.7188"/><ellipse cx="18" cy="752.0234" fill="#84BE84" rx="3" ry="3" style="stroke:#038048;stroke-width:1.0;"/><text fill="#000000" font-family="sans-serif" font-size="14" lengthAdjust="spacing" textLength="263" x="27" y="756.252">QuarterBoard(id: int, frames: Frame[8][8])</text><ellipse cx="18" cy="769.6328" fill="#84BE84" rx="3" ry="3" style="stroke:#038048;stroke-width:1.0;"/><text fill="#000000" font-family="sans-serif" font-size="14" lengthAdjust="spacing" textLength="64" x="27" y="773.8613">getId(): int</text><ellipse cx="18" cy="787.2422" fill="#84BE84" rx="3" ry="3" style="stroke:#038048;stroke-width:1.0;"/><text fill="#000000" font-family="sans-serif" font-size="14" lengthAdjust="spacing" textLength="159" x="27" y="791.4707">getFrames(): Frame[8][8]</text><ellipse cx="18" cy="804.8516" fill="#84BE84" rx="3" ry="3" style="stroke:#038048;stroke-width:1.0;"/><text fill="#000000" font-family="sans-serif" font-size="14" lengthAdjust="spacing" textLength="179" x="27" y="809.0801">getFrame(int x, int y): Frame</text></g><!--class Board--><g id="elem_Board"><rect codeLine="50" fill="#F1F1F1" height="136.0469" id="Board" rx="2.5" ry="2.5" style="stroke:#181818;stroke-width:0.5;" width="259" x="86" y="414"/><ellipse cx="192.25" cy="430" fill="#ADD1B2" rx="11" ry="11" style="stroke:#181818;stroke-width:1.0;"/><path d="M195.0156,425.875 Q195.1719,425.6563 195.3594,425.5469 Q195.5469,425.4375 195.7656,425.4375 Q196.1406,425.4375 196.375,425.7031 Q196.6094,425.9531 196.6094,426.5625 L196.6094,428.0156 Q196.6094,428.625 196.375,428.8906 Q196.1406,429.1563 195.7656,429.1563 Q195.4219,429.1563 195.2188,428.9531 Q195.0156,428.7656 194.9063,428.25 Q194.8594,427.8906 194.6719,427.7031 Q194.3438,427.3281 193.7344,427.1094 Q193.125,426.8906 192.5,426.8906 Q191.7344,426.8906 191.0938,427.2188 Q190.4688,427.5469 189.9688,428.2969 Q189.4844,429.0469 189.4844,430.0781 L189.4844,431.1719 Q189.4844,432.4063 190.375,433.2344 Q191.2656,434.0469 192.8594,434.0469 Q193.7969,434.0469 194.4531,433.7969 Q194.8438,433.6406 195.2656,433.2031 Q195.5313,432.9375 195.6719,432.8594 Q195.8281,432.7813 196.0313,432.7813 Q196.3594,432.7813 196.6094,433.0469 Q196.875,433.2969 196.875,433.6406 Q196.875,433.9844 196.5313,434.3906 Q196.0313,434.9688 195.2344,435.2969 Q194.1563,435.75 192.8594,435.75 Q191.3438,435.75 190.1406,435.125 Q189.1563,434.625 188.4688,433.5625 Q187.7813,432.4844 187.7813,431.2031 L187.7813,430.0469 Q187.7813,428.7188 188.3906,427.5781 Q189.0156,426.4219 190.1094,425.8125 Q191.2031,425.1875 192.4375,425.1875 Q193.1719,425.1875 193.8125,425.3594 Q194.4688,425.5156 195.0156,425.875 Z " fill="#000000"/><text fill="#000000" font-family="sans-serif" font-size="14" lengthAdjust="spacing" textLength="38" x="212.75" y="435.7285">Board</text><line style="stroke:#181818;stroke-width:0.5;" x1="87" x2="344" y1="446" y2="446"/><rect fill="none" height="6" style="stroke:#C82930;stroke-width:1.0;" width="6" x="94" y="457.3047"/><text fill="#000000" font-family="sans-serif" font-size="14" lengthAdjust="spacing" textLength="180" x="106" y="464.5332">quarters: QuarterBoard[2][2]</text><line style="stroke:#181818;stroke-width:0.5;" x1="87" x2="344" y1="471.6094" y2="471.6094"/><ellipse cx="97" cy="485.9141" fill="#84BE84" rx="3" ry="3" style="stroke:#038048;stroke-width:1.0;"/><text fill="#000000" font-family="sans-serif" font-size="14" lengthAdjust="spacing" textLength="48" x="106" y="490.1426">Board()</text><ellipse cx="97" cy="503.5234" fill="#84BE84" rx="3" ry="3" style="stroke:#038048;stroke-width:1.0;"/><text fill="#000000" font-family="sans-serif" font-size="14" lengthAdjust="spacing" textLength="101" x="106" y="507.752">generate(): void</text><ellipse cx="97" cy="521.1328" fill="#84BE84" rx="3" ry="3" style="stroke:#038048;stroke-width:1.0;"/><text fill="#000000" font-family="sans-serif" font-size="14" lengthAdjust="spacing" textLength="179" x="106" y="525.3613">getFrame(int x, int y): Frame</text><ellipse cx="97" cy="538.7422" fill="#84BE84" rx="3" ry="3" style="stroke:#038048;stroke-width:1.0;"/><text fill="#000000" font-family="sans-serif" font-size="14" lengthAdjust="spacing" textLength="233" x="106" y="542.9707">getQuarter(int x, int y): QuarterBoard</text></g><!--class Robot--><g id="elem_Robot"><rect codeLine="58" fill="#F1F1F1" height="188.875" id="Robot" rx="2.5" ry="2.5" style="stroke:#181818;stroke-width:0.5;" width="263" x="331" y="645"/><ellipse cx="439.25" cy="661" fill="#ADD1B2" rx="11" ry="11" style="stroke:#181818;stroke-width:1.0;"/><path d="M442.0156,656.875 Q442.1719,656.6563 442.3594,656.5469 Q442.5469,656.4375 442.7656,656.4375 Q443.1406,656.4375 443.375,656.7031 Q443.6094,656.9531 443.6094,657.5625 L443.6094,659.0156 Q443.6094,659.625 443.375,659.8906 Q443.1406,660.1563 442.7656,660.1563 Q442.4219,660.1563 442.2188,659.9531 Q442.0156,659.7656 441.9063,659.25 Q441.8594,658.8906 441.6719,658.7031 Q441.3438,658.3281 440.7344,658.1094 Q440.125,657.8906 439.5,657.8906 Q438.7344,657.8906 438.0938,658.2188 Q437.4688,658.5469 436.9688,659.2969 Q436.4844,660.0469 436.4844,661.0781 L436.4844,662.1719 Q436.4844,663.4063 437.375,664.2344 Q438.2656,665.0469 439.8594,665.0469 Q440.7969,665.0469 441.4531,664.7969 Q441.8438,664.6406 442.2656,664.2031 Q442.5313,663.9375 442.6719,663.8594 Q442.8281,663.7813 443.0313,663.7813 Q443.3594,663.7813 443.6094,664.0469 Q443.875,664.2969 443.875,664.6406 Q443.875,664.9844 443.5313,665.3906 Q443.0313,665.9688 442.2344,666.2969 Q441.1563,666.75 439.8594,666.75 Q438.3438,666.75 437.1406,666.125 Q436.1563,665.625 435.4688,664.5625 Q434.7813,663.4844 434.7813,662.2031 L434.7813,661.0469 Q434.7813,659.7188 435.3906,658.5781 Q436.0156,657.4219 437.1094,656.8125 Q438.2031,656.1875 439.4375,656.1875 Q440.1719,656.1875 440.8125,656.3594 Q441.4688,656.5156 442.0156,656.875 Z " fill="#000000"/><text fill="#000000" font-family="sans-serif" font-size="14" lengthAdjust="spacing" textLength="38" x="459.75" y="666.7285">Robot</text><line style="stroke:#181818;stroke-width:0.5;" x1="332" x2="593" y1="677" y2="677"/><rect fill="none" height="6" style="stroke:#C82930;stroke-width:1.0;" width="6" x="339" y="688.3047"/><text fill="#000000" font-family="sans-serif" font-size="14" lengthAdjust="spacing" textLength="73" x="351" y="695.5332">color: Color</text><rect fill="none" height="6" style="stroke:#C82930;stroke-width:1.0;" width="6" x="339" y="705.9141"/><text fill="#000000" font-family="sans-serif" font-size="14" lengthAdjust="spacing" textLength="108" x="351" y="713.1426">position: std::pair</text><line style="stroke:#181818;stroke-width:0.5;" x1="332" x2="593" y1="720.2188" y2="720.2188"/><ellipse cx="342" cy="734.5234" fill="#84BE84" rx="3" ry="3" style="stroke:#038048;stroke-width:1.0;"/><text fill="#000000" font-family="sans-serif" font-size="14" lengthAdjust="spacing" textLength="237" x="351" y="738.752">Robot(color: Color, position: std::pair)</text><ellipse cx="342" cy="752.1328" fill="#84BE84" rx="3" ry="3" style="stroke:#038048;stroke-width:1.0;"/><text fill="#000000" font-family="sans-serif" font-size="14" lengthAdjust="spacing" textLength="106" x="351" y="756.3613">getColor(): Color</text><ellipse cx="342" cy="769.7422" fill="#84BE84" rx="3" ry="3" style="stroke:#038048;stroke-width:1.0;"/><text fill="#000000" font-family="sans-serif" font-size="14" lengthAdjust="spacing" textLength="139" x="351" y="773.9707">getPosition(): std::pair</text><ellipse cx="342" cy="787.3516" fill="#84BE84" rx="3" ry="3" style="stroke:#038048;stroke-width:1.0;"/><text fill="#000000" font-family="sans-serif" font-size="14" lengthAdjust="spacing" textLength="61" x="351" y="791.5801">getX(): int</text><ellipse cx="342" cy="804.9609" fill="#84BE84" rx="3" ry="3" style="stroke:#038048;stroke-width:1.0;"/><text fill="#000000" font-family="sans-serif" font-size="14" lengthAdjust="spacing" textLength="62" x="351" y="809.1895">getY(): int</text><ellipse cx="342" cy="822.5703" fill="#84BE84" rx="3" ry="3" style="stroke:#038048;stroke-width:1.0;"/><text fill="#000000" font-family="sans-serif" font-size="14" lengthAdjust="spacing" textLength="137" x="351" y="826.7988">move(int x, int y): void</text></g><!--class Player--><g id="elem_Player"><rect codeLine="69" fill="#F1F1F1" height="206.4844" id="Player" rx="2.5" ry="2.5" style="stroke:#181818;stroke-width:0.5;" width="254" x="483.5" y="379"/><ellipse cx="586.25" cy="395" fill="#ADD1B2" rx="11" ry="11" style="stroke:#181818;stroke-width:1.0;"/><path d="M589.0156,390.875 Q589.1719,390.6563 589.3594,390.5469 Q589.5469,390.4375 589.7656,390.4375 Q590.1406,390.4375 590.375,390.7031 Q590.6094,390.9531 590.6094,391.5625 L590.6094,393.0156 Q590.6094,393.625 590.375,393.8906 Q590.1406,394.1563 589.7656,394.1563 Q589.4219,394.1563 589.2188,393.9531 Q589.0156,393.7656 588.9063,393.25 Q588.8594,392.8906 588.6719,392.7031 Q588.3438,392.3281 587.7344,392.1094 Q587.125,391.8906 586.5,391.8906 Q585.7344,391.8906 585.0938,392.2188 Q584.4688,392.5469 583.9688,393.2969 Q583.4844,394.0469 583.4844,395.0781 L583.4844,396.1719 Q583.4844,397.4063 584.375,398.2344 Q585.2656,399.0469 586.8594,399.0469 Q587.7969,399.0469 588.4531,398.7969 Q588.8438,398.6406 589.2656,398.2031 Q589.5313,397.9375 589.6719,397.8594 Q589.8281,397.7813 590.0313,397.7813 Q590.3594,397.7813 590.6094,398.0469 Q590.875,398.2969 590.875,398.6406 Q590.875,398.9844 590.5313,399.3906 Q590.0313,399.9688 589.2344,400.2969 Q588.1563,400.75 586.8594,400.75 Q585.3438,400.75 584.1406,400.125 Q583.1563,399.625 582.4688,398.5625 Q581.7813,397.4844 581.7813,396.2031 L581.7813,395.0469 Q581.7813,393.7188 582.3906,392.5781 Q583.0156,391.4219 584.1094,390.8125 Q585.2031,390.1875 586.4375,390.1875 Q587.1719,390.1875 587.8125,390.3594 Q588.4688,390.5156 589.0156,390.875 Z " fill="#000000"/><text fill="#000000" font-family="sans-serif" font-size="14" lengthAdjust="spacing" textLength="40" x="606.75" y="400.7285">Player</text><line style="stroke:#181818;stroke-width:0.5;" x1="484.5" x2="736.5" y1="411" y2="411"/><rect fill="none" height="6" style="stroke:#C82930;stroke-width:1.0;" width="6" x="491.5" y="422.3047"/><text fill="#000000" font-family="sans-serif" font-size="14" lengthAdjust="spacing" textLength="105" x="503.5" y="429.5332">name: std::string</text><rect fill="none" height="6" style="stroke:#C82930;stroke-width:1.0;" width="6" x="491.5" y="439.9141"/><text fill="#000000" font-family="sans-serif" font-size="14" lengthAdjust="spacing" textLength="85" x="503.5" y="447.1426">prediction: int</text><rect fill="none" height="6" style="stroke:#C82930;stroke-width:1.0;" width="6" x="491.5" y="457.5234"/><text fill="#000000" font-family="sans-serif" font-size="14" lengthAdjust="spacing" textLength="58" x="503.5" y="464.752">score: int</text><line style="stroke:#181818;stroke-width:0.5;" x1="484.5" x2="736.5" y1="471.8281" y2="471.8281"/><ellipse cx="494.5" cy="486.1328" fill="#84BE84" rx="3" ry="3" style="stroke:#038048;stroke-width:1.0;"/><text fill="#000000" font-family="sans-serif" font-size="14" lengthAdjust="spacing" textLength="155" x="503.5" y="490.3613">Player(name: std::string)</text><ellipse cx="494.5" cy="503.7422" fill="#84BE84" rx="3" ry="3" style="stroke:#038048;stroke-width:1.0;"/><text fill="#000000" font-family="sans-serif" font-size="14" lengthAdjust="spacing" textLength="136" x="503.5" y="507.9707">getName(): std::string</text><ellipse cx="494.5" cy="521.3516" fill="#84BE84" rx="3" ry="3" style="stroke:#038048;stroke-width:1.0;"/><text fill="#000000" font-family="sans-serif" font-size="14" lengthAdjust="spacing" textLength="116" x="503.5" y="525.5801">getPrediction(): int</text><ellipse cx="494.5" cy="538.9609" fill="#84BE84" rx="3" ry="3" style="stroke:#038048;stroke-width:1.0;"/><text fill="#000000" font-family="sans-serif" font-size="14" lengthAdjust="spacing" textLength="211" x="503.5" y="543.1895">setPrediction(prediction: int): void</text><ellipse cx="494.5" cy="556.5703" fill="#84BE84" rx="3" ry="3" style="stroke:#038048;stroke-width:1.0;"/><text fill="#000000" font-family="sans-serif" font-size="14" lengthAdjust="spacing" textLength="90" x="503.5" y="560.7988">getScore(): int</text><ellipse cx="494.5" cy="574.1797" fill="#84BE84" rx="3" ry="3" style="stroke:#038048;stroke-width:1.0;"/><text fill="#000000" font-family="sans-serif" font-size="14" lengthAdjust="spacing" textLength="228" x="503.5" y="578.4082">incrementScore(points: int = 1): void</text></g><!--class GameManager--><g id="elem_GameManager"><rect codeLine="81" fill="#F1F1F1" height="312.1406" id="GameManager" rx="2.5" ry="2.5" style="stroke:#181818;stroke-width:0.5;" width="244" x="308.5" y="7"/><ellipse cx="379.25" cy="23" fill="#ADD1B2" rx="11" ry="11" style="stroke:#181818;stroke-width:1.0;"/><path d="M382.0156,18.875 Q382.1719,18.6563 382.3594,18.5469 Q382.5469,18.4375 382.7656,18.4375 Q383.1406,18.4375 383.375,18.7031 Q383.6094,18.9531 383.6094,19.5625 L383.6094,21.0156 Q383.6094,21.625 383.375,21.8906 Q383.1406,22.1563 382.7656,22.1563 Q382.4219,22.1563 382.2188,21.9531 Q382.0156,21.7656 381.9063,21.25 Q381.8594,20.8906 381.6719,20.7031 Q381.3438,20.3281 380.7344,20.1094 Q380.125,19.8906 379.5,19.8906 Q378.7344,19.8906 378.0938,20.2188 Q377.4688,20.5469 376.9688,21.2969 Q376.4844,22.0469 376.4844,23.0781 L376.4844,24.1719 Q376.4844,25.4063 377.375,26.2344 Q378.2656,27.0469 379.8594,27.0469 Q380.7969,27.0469 381.4531,26.7969 Q381.8438,26.6406 382.2656,26.2031 Q382.5313,25.9375 382.6719,25.8594 Q382.8281,25.7813 383.0313,25.7813 Q383.3594,25.7813 383.6094,26.0469 Q383.875,26.2969 383.875,26.6406 Q383.875,26.9844 383.5313,27.3906 Q383.0313,27.9688 382.2344,28.2969 Q381.1563,28.75 379.8594,28.75 Q378.3438,28.75 377.1406,28.125 Q376.1563,27.625 375.4688,26.5625 Q374.7813,25.4844 374.7813,24.2031 L374.7813,23.0469 Q374.7813,21.7188 375.3906,20.5781 Q376.0156,19.4219 377.1094,18.8125 Q378.2031,18.1875 379.4375,18.1875 Q380.1719,18.1875 380.8125,18.3594 Q381.4688,18.5156 382.0156,18.875 Z " fill="#000000"/><text fill="#000000" font-family="sans-serif" font-size="14" lengthAdjust="spacing" textLength="94" x="399.75" y="28.7285">GameManager</text><line style="stroke:#181818;stroke-width:0.5;" x1="309.5" x2="551.5" y1="39" y2="39"/><rect fill="none" height="6" style="stroke:#C82930;stroke-width:1.0;" width="6" x="316.5" y="50.3047"/><text fill="#000000" font-family="sans-serif" font-size="14" lengthAdjust="spacing" textLength="84" x="328.5" y="57.5332">goal_tile: Tile</text><rect fill="none" height="6" style="stroke:#C82930;stroke-width:1.0;" width="6" x="316.5" y="67.9141"/><text fill="#000000" font-family="sans-serif" font-size="14" lengthAdjust="spacing" textLength="83" x="328.5" y="75.1426">board: Board</text><rect fill="none" height="6" style="stroke:#C82930;stroke-width:1.0;" width="6" x="316.5" y="85.5234"/><text fill="#000000" font-family="sans-serif" font-size="14" lengthAdjust="spacing" textLength="176" x="328.5" y="92.752">players: std::vector&lt;Player&gt;</text><line style="stroke:#181818;stroke-width:0.5;" x1="309.5" x2="551.5" y1="99.8281" y2="99.8281"/><ellipse cx="319.5" cy="114.1328" fill="#84BE84" rx="3" ry="3" style="stroke:#038048;stroke-width:1.0;"/><text fill="#000000" font-family="sans-serif" font-size="14" lengthAdjust="spacing" textLength="104" x="328.5" y="118.3613">GameManager()</text><ellipse cx="319.5" cy="131.7422" fill="#84BE84" rx="3" ry="3" style="stroke:#038048;stroke-width:1.0;"/><text fill="#000000" font-family="sans-serif" font-size="14" lengthAdjust="spacing" textLength="114" x="328.5" y="135.9707">getGoalTile(): Tile</text><ellipse cx="319.5" cy="149.3516" fill="#84BE84" rx="3" ry="3" style="stroke:#038048;stroke-width:1.0;"/><text fill="#000000" font-family="sans-serif" font-size="14" lengthAdjust="spacing" textLength="207" x="328.5" y="153.5801">getPlayers(): std::vector&lt;Player&gt;</text><ellipse cx="319.5" cy="166.9609" fill="#84BE84" rx="3" ry="3" style="stroke:#038048;stroke-width:1.0;"/><text fill="#000000" font-family="sans-serif" font-size="14" lengthAdjust="spacing" textLength="195" x="328.5" y="171.1895">addPlayer(player: Player): void</text><ellipse cx="319.5" cy="184.5703" fill="#84BE84" rx="3" ry="3" style="stroke:#038048;stroke-width:1.0;"/><text fill="#000000" font-family="sans-serif" font-size="14" lengthAdjust="spacing" textLength="218" x="328.5" y="188.7988">removePlayer(player: Player): void</text><ellipse cx="319.5" cy="202.1797" fill="#84BE84" rx="3" ry="3" style="stroke:#038048;stroke-width:1.0;"/><text fill="#000000" font-family="sans-serif" font-size="14" lengthAdjust="spacing" textLength="170" x="328.5" y="206.4082">getPlayer(int index): Player</text><ellipse cx="319.5" cy="219.7891" fill="#84BE84" rx="3" ry="3" style="stroke:#038048;stroke-width:1.0;"/><text fill="#000000" font-family="sans-serif" font-size="14" lengthAdjust="spacing" textLength="126" x="328.5" y="224.0176">displayBoard(): void</text><ellipse cx="319.5" cy="237.3984" fill="#84BE84" rx="3" ry="3" style="stroke:#038048;stroke-width:1.0;"/><text fill="#000000" font-family="sans-serif" font-size="14" lengthAdjust="spacing" textLength="121" x="328.5" y="241.627">setupRound(): void</text><ellipse cx="319.5" cy="255.0078" fill="#84BE84" rx="3" ry="3" style="stroke:#038048;stroke-width:1.0;"/><text fill="#000000" font-family="sans-serif" font-size="14" lengthAdjust="spacing" textLength="132" x="328.5" y="259.2363">processInputs(): void</text><ellipse cx="319.5" cy="272.6172" fill="#84BE84" rx="3" ry="3" style="stroke:#038048;stroke-width:1.0;"/><text fill="#000000" font-family="sans-serif" font-size="14" lengthAdjust="spacing" textLength="194" x="328.5" y="276.8457">sortPlayerByPredictions(): void</text><ellipse cx="319.5" cy="290.2266" fill="#84BE84" rx="3" ry="3" style="stroke:#038048;stroke-width:1.0;"/><text fill="#000000" font-family="sans-serif" font-size="14" lengthAdjust="spacing" textLength="112" x="328.5" y="294.4551">playRound(): void</text><ellipse cx="319.5" cy="307.8359" fill="#84BE84" rx="3" ry="3" style="stroke:#038048;stroke-width:1.0;"/><text fill="#000000" font-family="sans-serif" font-size="14" lengthAdjust="spacing" textLength="135" x="328.5" y="312.0645">displayResults(): void</text></g><!--link Frame to Tile--><g id="link_Frame_Tile"><path codeLine="99" d="M205.53,1048.17 C219.42,1067.74 234.26,1088.66 247.8,1107.75 " fill="none" id="Frame-Tile" style="stroke:#181818;stroke-width:1.0;"/></g><!--reverse link QuarterBoard to Frame--><g id="link_QuarterBoard_Frame"><path codeLine="100" d="M151.5,828.6 C151.5,853.39 151.5,868.91 151.5,893.71 " fill="none" id="QuarterBoard-backto-Frame" style="stroke:#181818;stroke-width:1.0;"/><polygon fill="#181818" points="151.5,816.6,147.5,822.6,151.5,828.6,155.5,822.6,151.5,816.6" style="stroke:#181818;stroke-width:1.0;"/><text fill="#000000" font-family="sans-serif" font-size="13" lengthAdjust="spacing" textLength="7" x="144.1883" y="837.7053">1</text><text fill="#000000" font-family="sans-serif" font-size="13" lengthAdjust="spacing" textLength="14" x="136.8328" y="883.1091">16</text></g><!--reverse link Board to QuarterBoard--><g id="link_Board_QuarterBoard"><path codeLine="101" d="M195.7672,561.7711 C187.1472,596.2211 179.51,626.68 170.58,662.34 " fill="none" id="Board-backto-QuarterBoard" style="stroke:#181818;stroke-width:1.0;"/><polygon fill="#181818" points="198.68,550.13,193.3432,554.9796,195.7672,561.7711,201.104,556.9215,198.68,550.13" style="stroke:#181818;stroke-width:1.0;"/><text fill="#000000" font-family="sans-serif" font-size="13" lengthAdjust="spacing" textLength="7" x="189.5845" y="571.4917">1</text><text fill="#000000" font-family="sans-serif" font-size="13" lengthAdjust="spacing" textLength="7" x="165.065" y="651.7514">4</text></g><!--reverse link GameManager to Player--><g id="link_GameManager_Player"><path codeLine="102" d="M524.5781,329.6835 C536.0781,349.9235 541.68,359.79 552.5,378.85 " fill="none" id="GameManager-backto-Player" style="stroke:#181818;stroke-width:1.0;"/><polygon fill="#181818" points="518.65,319.25,518.1362,326.4428,524.5781,329.6835,525.0919,322.4907,518.65,319.25" style="stroke:#181818;stroke-width:1.0;"/><text fill="#000000" font-family="sans-serif" font-size="13" lengthAdjust="spacing" textLength="7" x="515.7502" y="340.7061">1</text><text fill="#000000" font-family="sans-serif" font-size="13" lengthAdjust="spacing" textLength="7" x="540.9836" y="368.1777">n</text></g><!--reverse link GameManager to Robot--><g id="link_GameManager_Robot"><path codeLine="103" d="M439.8069,331.0715 C445.5969,435.0915 452.37,556.69 457.28,644.82 " fill="none" id="GameManager-backto-Robot" style="stroke:#181818;stroke-width:1.0;"/><polygon fill="#181818" points="439.14,319.09,435.4796,325.303,439.8069,331.0715,443.4673,324.8584,439.14,319.09" style="stroke:#181818;stroke-width:1.0;"/><text fill="#000000" font-family="sans-serif" font-size="13" lengthAdjust="spacing" textLength="7" x="432.389" y="340.5383">1</text><text fill="#000000" font-family="sans-serif" font-size="13" lengthAdjust="spacing" textLength="7" x="449.5851" y="634.1518">4</text></g><!--reverse link GameManager to Board--><g id="link_GameManager_Board"><path codeLine="104" d="M318.4659,329.1824 C295.9159,362.4424 279.96,385.95 261.12,413.73 " fill="none" id="GameManager-backto-Board" style="stroke:#181818;stroke-width:1.0;"/><polygon fill="#181818" points="325.2,319.25,318.5222,321.9715,318.4659,329.1824,325.1438,326.4609,325.2,319.25" style="stroke:#181818;stroke-width:1.0;"/><text fill="#000000" font-family="sans-serif" font-size="13" lengthAdjust="spacing" textLength="7" x="312.93" y="340.7061">1</text><text fill="#000000" font-family="sans-serif" font-size="13" lengthAdjust="spacing" textLength="7" x="258.4636" y="403.3755">1</text></g><!--link Robot to Color--><g id="link_Robot_Color"><path codeLine="105" d="M458.49,834.21 C452.98,962.85 443.21,1191.01 438.37,1303.9 " fill="none" id="Robot-Color" style="stroke:#181818;stroke-width:1.0;"/></g><!--link Tile to Color--><g id="link_Tile_Color"><path codeLine="106" d="M343.88,1244.04 C361.34,1268.24 380.8,1295.2 397.28,1318.04 " fill="none" id="Tile-Color" style="stroke:#181818;stroke-width:1.0;"/></g><!--link Tile to Shape--><g id="link_Tile_Shape"><path codeLine="107" d="M295.5,1244.04 C295.5,1266.38 295.5,1291.07 295.5,1312.7 " fill="none" id="Tile-Shape" style="stroke:#181818;stroke-width:1.0;"/></g><!--link Frame to Direction--><g id="link_Frame_Direction"><path codeLine="108" d="M133.11,1048.17 C127.63,1070.89 121.71,1095.43 116.55,1116.81 " fill="none" id="Frame-Direction" style="stroke:#181818;stroke-width:1.0;"/></g><!--SRC=[ZLLjQzim4FwUNo7ooScI3nrb3BCDaZRD0cdQEWbTAMMejfO97CcJxAnbxBzFqfrj-ONH4B1zzznppvtEPoQA8xcGgLJapu2OttozNxYRQ77fhW-BzVhctjqkeyLY0yxPQZCtrh-30RCCsvyqOyYmYrQppN8DBDkx_Io2sujLT55QTxEeYhtaYiKvbmBZzxVkSdbp3xdMYwiT95qjl-viM9nIhScEfsNAAObj2I5KWYPjDOKWpPdUkP30XquQg1723Ynttc3aCpgxmraxq5PYhXGzrcfoaoSaOviEBRzfckgGF4kPFfu_8PyB2W1iiPCMpDFZb8y0LbllBToQcxmn5TVon8Aax6nODnd1jVAxWggSgRcaAgaAu4b8kCZnwOVLQMGvlOyVdymVC_d10GPD-l1UAQl4AYxPdSa1NI7T5AKxC17aPM83oMk9hCjewly5kem6N-7Z-oVpHrxGNEiIJD7SzVWaUVAcv1K6axHHVkvQQIIVPVw_mSsavd1gEa_2CAEy740NsXhW7lGRvlWMewohdSMultMEwA5fEThvQfNh-bQLUPlILwQgEeLf6ARIkUBYK1QhMC9nIEk9qx5Kp1a89WIwe4FZrRgn1pNg9e62gppDGdJ3rLBJ6OQjrTKau29MxCW4-Z9fN1gaVoPddROiZSXhAkZ1wyr1qlHxlGRG-cp79eGvBPlbcg2nn9DvewNw19tvWd8yVc-uywL9qRz385nNZUjbfKc21m0IGZoFPeDC7ynOl05OfNKZn4N2NaOb4Y49rvO1tz96j3co8eja8TgEJCcOQRqIMP7hTf1Kc7F-MXzu6sLJzZ6ZceZf8lMepQd2ufzEeQlmD3pxC2JJ8fkEpUsmkGPWJrdps0GDprjkVpmga1YMlUbr6mwt6FgzvWhKi7UC2LQ1-tnsdk2pLXLLVJO6Wty0]--></g></svg>