<?xml version="1.0" encoding="us-ascii" standalone="no"?><svg xmlns="http://www.w3.org/2000/svg" xmlns:xlink="http://www.w3.org/1999/xlink" contentStyleType="text/css" height="1588px" preserveAspectRatio="none" style="width:737px;height:1588px;background:#FFFFFF;" version="1.1" viewBox="0 0 737 1588" width="737px" zoomAndPan="magnify"><defs/><g><!--class Color--><g id="elem_Color"><rect codeLine="2" fill="#F1F1F1" height="136.0469" id="Color" rx="2.5" ry="2.5" style="stroke:#181818;stroke-width:0.5;" width="76" x="397.5" y="1445"/><ellipse cx="417" cy="1461" fill="#EB937F" rx="11" ry="11" style="stroke:#181818;stroke-width:1.0;"/><path d="M415.8594,1461.7969 L415.8594,1464.2969 L420.1875,1464.2969 L420.1875,1463.375 Q420.1875,1462.7656 420.4219,1462.5 Q420.6719,1462.2344 421.0469,1462.2344 Q421.4219,1462.2344 421.6563,1462.5 Q421.8906,1462.7656 421.8906,1463.375 L421.8906,1466 L413.8906,1466 Q413.2656,1466 413,1465.7656 Q412.75,1465.5313 412.75,1465.1406 Q412.75,1464.7656 413.0156,1464.5313 Q413.2813,1464.2969 413.8906,1464.2969 L414.1563,1464.2969 L414.1563,1457.6406 L413.8906,1457.6406 Q413.2656,1457.6406 413,1457.4063 Q412.75,1457.1719 412.75,1456.7813 Q412.75,1456.4063 413,1456.1719 Q413.2656,1455.9375 413.8906,1455.9375 L421.5156,1455.9375 L421.5156,1458.5313 Q421.5156,1459.1406 421.2813,1459.4063 Q421.0625,1459.6563 420.6719,1459.6563 Q420.2969,1459.6563 420.0625,1459.4063 Q419.8281,1459.1406 419.8281,1458.5313 L419.8281,1457.6406 L415.8594,1457.6406 L415.8594,1460.0938 L417.3438,1460.0938 Q417.3438,1459.4375 417.4688,1459.25 Q417.7344,1458.8438 418.2031,1458.8438 Q418.5781,1458.8438 418.8125,1459.1094 Q419.0469,1459.3594 419.0469,1459.9688 L419.0469,1461.9375 Q419.0469,1462.4844 418.9219,1462.6719 Q418.6563,1463.0625 418.2031,1463.0625 Q417.7344,1463.0625 417.4688,1462.6563 Q417.3438,1462.4688 417.3438,1461.7969 L415.8594,1461.7969 Z " fill="#000000"/><text fill="#000000" font-family="sans-serif" font-size="14" lengthAdjust="spacing" textLength="34" x="432" y="1466.7285">Color</text><line style="stroke:#181818;stroke-width:0.5;" x1="398.5" x2="472.5" y1="1477" y2="1477"/><text fill="#000000" font-family="sans-serif" font-size="14" lengthAdjust="spacing" textLength="35" x="403.5" y="1495.5332">BLUE</text><text fill="#000000" font-family="sans-serif" font-size="14" lengthAdjust="spacing" textLength="29" x="403.5" y="1513.1426">RED</text><text fill="#000000" font-family="sans-serif" font-size="14" lengthAdjust="spacing" textLength="58" x="403.5" y="1530.752">YELLOW</text><text fill="#000000" font-family="sans-serif" font-size="14" lengthAdjust="spacing" textLength="48" x="403.5" y="1548.3613">GREEN</text><text fill="#000000" font-family="sans-serif" font-size="14" lengthAdjust="spacing" textLength="64" x="403.5" y="1565.9707">RAINBOW</text><line style="stroke:#181818;stroke-width:0.5;" x1="398.5" x2="472.5" y1="1573.0469" y2="1573.0469"/></g><!--class Shape--><g id="elem_Shape"><rect codeLine="10" fill="#F1F1F1" height="118.4375" id="Shape" rx="2.5" ry="2.5" style="stroke:#181818;stroke-width:0.5;" width="80" x="255.5" y="1454"/><ellipse cx="273.65" cy="1470" fill="#EB937F" rx="11" ry="11" style="stroke:#181818;stroke-width:1.0;"/><path d="M272.5094,1470.7969 L272.5094,1473.2969 L276.8375,1473.2969 L276.8375,1472.375 Q276.8375,1471.7656 277.0719,1471.5 Q277.3219,1471.2344 277.6969,1471.2344 Q278.0719,1471.2344 278.3063,1471.5 Q278.5406,1471.7656 278.5406,1472.375 L278.5406,1475 L270.5406,1475 Q269.9156,1475 269.65,1474.7656 Q269.4,1474.5313 269.4,1474.1406 Q269.4,1473.7656 269.6656,1473.5313 Q269.9313,1473.2969 270.5406,1473.2969 L270.8063,1473.2969 L270.8063,1466.6406 L270.5406,1466.6406 Q269.9156,1466.6406 269.65,1466.4063 Q269.4,1466.1719 269.4,1465.7813 Q269.4,1465.4063 269.65,1465.1719 Q269.9156,1464.9375 270.5406,1464.9375 L278.1656,1464.9375 L278.1656,1467.5313 Q278.1656,1468.1406 277.9313,1468.4063 Q277.7125,1468.6563 277.3219,1468.6563 Q276.9469,1468.6563 276.7125,1468.4063 Q276.4781,1468.1406 276.4781,1467.5313 L276.4781,1466.6406 L272.5094,1466.6406 L272.5094,1469.0938 L273.9938,1469.0938 Q273.9938,1468.4375 274.1188,1468.25 Q274.3844,1467.8438 274.8531,1467.8438 Q275.2281,1467.8438 275.4625,1468.1094 Q275.6969,1468.3594 275.6969,1468.9688 L275.6969,1470.9375 Q275.6969,1471.4844 275.5719,1471.6719 Q275.3063,1472.0625 274.8531,1472.0625 Q274.3844,1472.0625 274.1188,1471.6563 Q273.9938,1471.4688 273.9938,1470.7969 L272.5094,1470.7969 Z " fill="#000000"/><text fill="#000000" font-family="sans-serif" font-size="14" lengthAdjust="spacing" textLength="41" x="288.35" y="1475.7285">Shape</text><line style="stroke:#181818;stroke-width:0.5;" x1="256.5" x2="334.5" y1="1486" y2="1486"/><text fill="#000000" font-family="sans-serif" font-size="14" lengthAdjust="spacing" textLength="68" x="261.5" y="1504.5332">TRIANGLE</text><text fill="#000000" font-family="sans-serif" font-size="14" lengthAdjust="spacing" textLength="57" x="261.5" y="1522.1426">SQUARE</text><text fill="#000000" font-family="sans-serif" font-size="14" lengthAdjust="spacing" textLength="50" x="261.5" y="1539.752">CIRCLE</text><text fill="#000000" font-family="sans-serif" font-size="14" lengthAdjust="spacing" textLength="37" x="261.5" y="1557.3613">STAR</text><line style="stroke:#181818;stroke-width:0.5;" x1="256.5" x2="334.5" y1="1564.4375" y2="1564.4375"/></g><!--class Direction--><g id="elem_Direction"><rect codeLine="17" fill="#F1F1F1" height="118.4375" id="Direction" rx="2.5" ry="2.5" style="stroke:#181818;stroke-width:0.5;" width="88" x="58.5" y="1249"/><ellipse cx="73.5" cy="1265" fill="#EB937F" rx="11" ry="11" style="stroke:#181818;stroke-width:1.0;"/><path d="M72.3594,1265.7969 L72.3594,1268.2969 L76.6875,1268.2969 L76.6875,1267.375 Q76.6875,1266.7656 76.9219,1266.5 Q77.1719,1266.2344 77.5469,1266.2344 Q77.9219,1266.2344 78.1563,1266.5 Q78.3906,1266.7656 78.3906,1267.375 L78.3906,1270 L70.3906,1270 Q69.7656,1270 69.5,1269.7656 Q69.25,1269.5313 69.25,1269.1406 Q69.25,1268.7656 69.5156,1268.5313 Q69.7813,1268.2969 70.3906,1268.2969 L70.6563,1268.2969 L70.6563,1261.6406 L70.3906,1261.6406 Q69.7656,1261.6406 69.5,1261.4063 Q69.25,1261.1719 69.25,1260.7813 Q69.25,1260.4063 69.5,1260.1719 Q69.7656,1259.9375 70.3906,1259.9375 L78.0156,1259.9375 L78.0156,1262.5313 Q78.0156,1263.1406 77.7813,1263.4063 Q77.5625,1263.6563 77.1719,1263.6563 Q76.7969,1263.6563 76.5625,1263.4063 Q76.3281,1263.1406 76.3281,1262.5313 L76.3281,1261.6406 L72.3594,1261.6406 L72.3594,1264.0938 L73.8438,1264.0938 Q73.8438,1263.4375 73.9688,1263.25 Q74.2344,1262.8438 74.7031,1262.8438 Q75.0781,1262.8438 75.3125,1263.1094 Q75.5469,1263.3594 75.5469,1263.9688 L75.5469,1265.9375 Q75.5469,1266.4844 75.4219,1266.6719 Q75.1563,1267.0625 74.7031,1267.0625 Q74.2344,1267.0625 73.9688,1266.6563 Q73.8438,1266.4688 73.8438,1265.7969 L72.3594,1265.7969 Z " fill="#000000"/><text fill="#000000" font-family="sans-serif" font-size="14" lengthAdjust="spacing" textLength="56" x="87.5" y="1270.7285">Direction</text><line style="stroke:#181818;stroke-width:0.5;" x1="59.5" x2="145.5" y1="1281" y2="1281"/><text fill="#000000" font-family="sans-serif" font-size="14" lengthAdjust="spacing" textLength="18" x="64.5" y="1299.5332">UP</text><text fill="#000000" font-family="sans-serif" font-size="14" lengthAdjust="spacing" textLength="43" x="64.5" y="1317.1426">DOWN</text><text fill="#000000" font-family="sans-serif" font-size="14" lengthAdjust="spacing" textLength="35" x="64.5" y="1334.752">LEFT</text><text fill="#000000" font-family="sans-serif" font-size="14" lengthAdjust="spacing" textLength="42" x="64.5" y="1352.3613">RIGHT</text><line style="stroke:#181818;stroke-width:0.5;" x1="59.5" x2="145.5" y1="1359.4375" y2="1359.4375"/></g><!--class Tile--><g id="elem_Tile"><rect codeLine="24" fill="#F1F1F1" height="153.6563" id="Tile" rx="2.5" ry="2.5" style="stroke:#181818;stroke-width:0.5;" width="228" x="181.5" y="1231"/><ellipse cx="279.75" cy="1247" fill="#ADD1B2" rx="11" ry="11" style="stroke:#181818;stroke-width:1.0;"/><path d="M282.5156,1242.875 Q282.6719,1242.6563 282.8594,1242.5469 Q283.0469,1242.4375 283.2656,1242.4375 Q283.6406,1242.4375 283.875,1242.7031 Q284.1094,1242.9531 284.1094,1243.5625 L284.1094,1245.0156 Q284.1094,1245.625 283.875,1245.8906 Q283.6406,1246.1563 283.2656,1246.1563 Q282.9219,1246.1563 282.7188,1245.9531 Q282.5156,1245.7656 282.4063,1245.25 Q282.3594,1244.8906 282.1719,1244.7031 Q281.8438,1244.3281 281.2344,1244.1094 Q280.625,1243.8906 280,1243.8906 Q279.2344,1243.8906 278.5938,1244.2188 Q277.9688,1244.5469 277.4688,1245.2969 Q276.9844,1246.0469 276.9844,1247.0781 L276.9844,1248.1719 Q276.9844,1249.4063 277.875,1250.2344 Q278.7656,1251.0469 280.3594,1251.0469 Q281.2969,1251.0469 281.9531,1250.7969 Q282.3438,1250.6406 282.7656,1250.2031 Q283.0313,1249.9375 283.1719,1249.8594 Q283.3281,1249.7813 283.5313,1249.7813 Q283.8594,1249.7813 284.1094,1250.0469 Q284.375,1250.2969 284.375,1250.6406 Q284.375,1250.9844 284.0313,1251.3906 Q283.5313,1251.9688 282.7344,1252.2969 Q281.6563,1252.75 280.3594,1252.75 Q278.8438,1252.75 277.6406,1252.125 Q276.6563,1251.625 275.9688,1250.5625 Q275.2813,1249.4844 275.2813,1248.2031 L275.2813,1247.0469 Q275.2813,1245.7188 275.8906,1244.5781 Q276.5156,1243.4219 277.6094,1242.8125 Q278.7031,1242.1875 279.9375,1242.1875 Q280.6719,1242.1875 281.3125,1242.3594 Q281.9688,1242.5156 282.5156,1242.875 Z " fill="#000000"/><text fill="#000000" font-family="sans-serif" font-size="14" lengthAdjust="spacing" textLength="23" x="300.25" y="1252.7285">Tile</text><line style="stroke:#181818;stroke-width:0.5;" x1="182.5" x2="408.5" y1="1263" y2="1263"/><rect fill="none" height="6" style="stroke:#C82930;stroke-width:1.0;" width="6" x="189.5" y="1274.3047"/><text fill="#000000" font-family="sans-serif" font-size="14" lengthAdjust="spacing" textLength="73" x="201.5" y="1281.5332">color: Color</text><rect fill="none" height="6" style="stroke:#C82930;stroke-width:1.0;" width="6" x="189.5" y="1291.9141"/><text fill="#000000" font-family="sans-serif" font-size="14" lengthAdjust="spacing" textLength="88" x="201.5" y="1299.1426">shape: Shape</text><line style="stroke:#181818;stroke-width:0.5;" x1="182.5" x2="408.5" y1="1306.2188" y2="1306.2188"/><ellipse cx="192.5" cy="1320.5234" fill="#84BE84" rx="3" ry="3" style="stroke:#038048;stroke-width:1.0;"/><text fill="#000000" font-family="sans-serif" font-size="14" lengthAdjust="spacing" textLength="202" x="201.5" y="1324.752">Tile(color: Color, shape: Shape)</text><ellipse cx="192.5" cy="1338.1328" fill="#84BE84" rx="3" ry="3" style="stroke:#038048;stroke-width:1.0;"/><text fill="#000000" font-family="sans-serif" font-size="14" lengthAdjust="spacing" textLength="106" x="201.5" y="1342.3613">getColor(): Color</text><ellipse cx="192.5" cy="1355.7422" fill="#84BE84" rx="3" ry="3" style="stroke:#038048;stroke-width:1.0;"/><text fill="#000000" font-family="sans-serif" font-size="14" lengthAdjust="spacing" textLength="120" x="201.5" y="1359.9707">getShape(): Shape</text><ellipse cx="192.5" cy="1373.3516" fill="#84BE84" rx="3" ry="3" style="stroke:#038048;stroke-width:1.0;"/><text fill="#000000" font-family="sans-serif" font-size="14" lengthAdjust="spacing" textLength="134" x="201.5" y="1377.5801">getEmoji(): std::string</text></g><!--class Frame--><g id="elem_Frame"><rect codeLine="33" fill="#F1F1F1" height="171.2656" id="Frame" rx="2.5" ry="2.5" style="stroke:#181818;stroke-width:0.5;" width="246" x="28.5" y="1000"/><ellipse cx="126.75" cy="1016" fill="#ADD1B2" rx="11" ry="11" style="stroke:#181818;stroke-width:1.0;"/><path d="M129.5156,1011.875 Q129.6719,1011.6563 129.8594,1011.5469 Q130.0469,1011.4375 130.2656,1011.4375 Q130.6406,1011.4375 130.875,1011.7031 Q131.1094,1011.9531 131.1094,1012.5625 L131.1094,1014.0156 Q131.1094,1014.625 130.875,1014.8906 Q130.6406,1015.1563 130.2656,1015.1563 Q129.9219,1015.1563 129.7188,1014.9531 Q129.5156,1014.7656 129.4063,1014.25 Q129.3594,1013.8906 129.1719,1013.7031 Q128.8438,1013.3281 128.2344,1013.1094 Q127.625,1012.8906 127,1012.8906 Q126.2344,1012.8906 125.5938,1013.2188 Q124.9688,1013.5469 124.4688,1014.2969 Q123.9844,1015.0469 123.9844,1016.0781 L123.9844,1017.1719 Q123.9844,1018.4063 124.875,1019.2344 Q125.7656,1020.0469 127.3594,1020.0469 Q128.2969,1020.0469 128.9531,1019.7969 Q129.3438,1019.6406 129.7656,1019.2031 Q130.0313,1018.9375 130.1719,1018.8594 Q130.3281,1018.7813 130.5313,1018.7813 Q130.8594,1018.7813 131.1094,1019.0469 Q131.375,1019.2969 131.375,1019.6406 Q131.375,1019.9844 131.0313,1020.3906 Q130.5313,1020.9688 129.7344,1021.2969 Q128.6563,1021.75 127.3594,1021.75 Q125.8438,1021.75 124.6406,1021.125 Q123.6563,1020.625 122.9688,1019.5625 Q122.2813,1018.4844 122.2813,1017.2031 L122.2813,1016.0469 Q122.2813,1014.7188 122.8906,1013.5781 Q123.5156,1012.4219 124.6094,1011.8125 Q125.7031,1011.1875 126.9375,1011.1875 Q127.6719,1011.1875 128.3125,1011.3594 Q128.9688,1011.5156 129.5156,1011.875 Z " fill="#000000"/><text fill="#000000" font-family="sans-serif" font-size="14" lengthAdjust="spacing" textLength="41" x="147.25" y="1021.7285">Frame</text><line style="stroke:#181818;stroke-width:0.5;" x1="29.5" x2="273.5" y1="1032" y2="1032"/><rect fill="none" height="6" style="stroke:#C82930;stroke-width:1.0;" width="6" x="36.5" y="1043.3047"/><text fill="#000000" font-family="sans-serif" font-size="14" lengthAdjust="spacing" textLength="54" x="48.5" y="1050.5332">tile: Tile*</text><rect fill="none" height="6" style="stroke:#C82930;stroke-width:1.0;" width="6" x="36.5" y="1060.9141"/><text fill="#000000" font-family="sans-serif" font-size="14" lengthAdjust="spacing" textLength="81" x="48.5" y="1068.1426">walls: bool[4]</text><line style="stroke:#181818;stroke-width:0.5;" x1="29.5" x2="273.5" y1="1075.2188" y2="1075.2188"/><ellipse cx="39.5" cy="1089.5234" fill="#84BE84" rx="3" ry="3" style="stroke:#038048;stroke-width:1.0;"/><text fill="#000000" font-family="sans-serif" font-size="14" lengthAdjust="spacing" textLength="51" x="48.5" y="1093.752">Frame()</text><ellipse cx="39.5" cy="1107.1328" fill="#84BE84" rx="3" ry="3" style="stroke:#038048;stroke-width:1.0;"/><text fill="#000000" font-family="sans-serif" font-size="14" lengthAdjust="spacing" textLength="194" x="48.5" y="1111.3613">Frame(tile: Tile*, walls: bool[4])</text><ellipse cx="39.5" cy="1124.7422" fill="#84BE84" rx="3" ry="3" style="stroke:#038048;stroke-width:1.0;"/><text fill="#000000" font-family="sans-serif" font-size="14" lengthAdjust="spacing" textLength="89" x="48.5" y="1128.9707">getTile(): Tile*</text><ellipse cx="39.5" cy="1142.3516" fill="#84BE84" rx="3" ry="3" style="stroke:#038048;stroke-width:1.0;"/><text fill="#000000" font-family="sans-serif" font-size="14" lengthAdjust="spacing" textLength="115" x="48.5" y="1146.5801">getWalls(): bool[4]</text><ellipse cx="39.5" cy="1159.9609" fill="#84BE84" rx="3" ry="3" style="stroke:#038048;stroke-width:1.0;"/><text fill="#000000" font-family="sans-serif" font-size="14" lengthAdjust="spacing" textLength="220" x="48.5" y="1164.1895">canMove(direction: Direction): bool</text></g><!--class QuarterBoard--><g id="elem_QuarterBoard"><rect codeLine="43" fill="#F1F1F1" height="153.6563" id="QuarterBoard" rx="2.5" ry="2.5" style="stroke:#181818;stroke-width:0.5;" width="289" x="7" y="751"/><ellipse cx="103.75" cy="767" fill="#ADD1B2" rx="11" ry="11" style="stroke:#181818;stroke-width:1.0;"/><path d="M106.5156,762.875 Q106.6719,762.6563 106.8594,762.5469 Q107.0469,762.4375 107.2656,762.4375 Q107.6406,762.4375 107.875,762.7031 Q108.1094,762.9531 108.1094,763.5625 L108.1094,765.0156 Q108.1094,765.625 107.875,765.8906 Q107.6406,766.1563 107.2656,766.1563 Q106.9219,766.1563 106.7188,765.9531 Q106.5156,765.7656 106.4063,765.25 Q106.3594,764.8906 106.1719,764.7031 Q105.8438,764.3281 105.2344,764.1094 Q104.625,763.8906 104,763.8906 Q103.2344,763.8906 102.5938,764.2188 Q101.9688,764.5469 101.4688,765.2969 Q100.9844,766.0469 100.9844,767.0781 L100.9844,768.1719 Q100.9844,769.4063 101.875,770.2344 Q102.7656,771.0469 104.3594,771.0469 Q105.2969,771.0469 105.9531,770.7969 Q106.3438,770.6406 106.7656,770.2031 Q107.0313,769.9375 107.1719,769.8594 Q107.3281,769.7813 107.5313,769.7813 Q107.8594,769.7813 108.1094,770.0469 Q108.375,770.2969 108.375,770.6406 Q108.375,770.9844 108.0313,771.3906 Q107.5313,771.9688 106.7344,772.2969 Q105.6563,772.75 104.3594,772.75 Q102.8438,772.75 101.6406,772.125 Q100.6563,771.625 99.9688,770.5625 Q99.2813,769.4844 99.2813,768.2031 L99.2813,767.0469 Q99.2813,765.7188 99.8906,764.5781 Q100.5156,763.4219 101.6094,762.8125 Q102.7031,762.1875 103.9375,762.1875 Q104.6719,762.1875 105.3125,762.3594 Q105.9688,762.5156 106.5156,762.875 Z " fill="#000000"/><text fill="#000000" font-family="sans-serif" font-size="14" lengthAdjust="spacing" textLength="87" x="124.25" y="772.7285">QuarterBoard</text><line style="stroke:#181818;stroke-width:0.5;" x1="8" x2="295" y1="783" y2="783"/><rect fill="none" height="6" style="stroke:#C82930;stroke-width:1.0;" width="6" x="15" y="794.3047"/><text fill="#000000" font-family="sans-serif" font-size="14" lengthAdjust="spacing" textLength="34" x="27" y="801.5332">id: int</text><rect fill="none" height="6" style="stroke:#C82930;stroke-width:1.0;" width="6" x="15" y="811.9141"/><text fill="#000000" font-family="sans-serif" font-size="14" lengthAdjust="spacing" textLength="124" x="27" y="819.1426">frames: Frame[8][8]</text><line style="stroke:#181818;stroke-width:0.5;" x1="8" x2="295" y1="826.2188" y2="826.2188"/><ellipse cx="18" cy="840.5234" fill="#84BE84" rx="3" ry="3" style="stroke:#038048;stroke-width:1.0;"/><text fill="#000000" font-family="sans-serif" font-size="14" lengthAdjust="spacing" textLength="263" x="27" y="844.752">QuarterBoard(id: int, frames: Frame[8][8])</text><ellipse cx="18" cy="858.1328" fill="#84BE84" rx="3" ry="3" style="stroke:#038048;stroke-width:1.0;"/><text fill="#000000" font-family="sans-serif" font-size="14" lengthAdjust="spacing" textLength="64" x="27" y="862.3613">getId(): int</text><ellipse cx="18" cy="875.7422" fill="#84BE84" rx="3" ry="3" style="stroke:#038048;stroke-width:1.0;"/><text fill="#000000" font-family="sans-serif" font-size="14" lengthAdjust="spacing" textLength="179" x="27" y="879.9707">getFrame(int x, int y): Frame</text><ellipse cx="18" cy="893.3516" fill="#84BE84" rx="3" ry="3" style="stroke:#038048;stroke-width:1.0;"/><text fill="#000000" font-family="sans-serif" font-size="14" lengthAdjust="spacing" textLength="190" x="27" y="897.5801">applySymetry(): QuarterBoard</text></g><!--class Board--><g id="elem_Board"><rect codeLine="52" fill="#F1F1F1" height="118.4375" id="Board" rx="2.5" ry="2.5" style="stroke:#181818;stroke-width:0.5;" width="206" x="125.5" y="494"/><ellipse cx="205.25" cy="510" fill="#ADD1B2" rx="11" ry="11" style="stroke:#181818;stroke-width:1.0;"/><path d="M208.0156,505.875 Q208.1719,505.6563 208.3594,505.5469 Q208.5469,505.4375 208.7656,505.4375 Q209.1406,505.4375 209.375,505.7031 Q209.6094,505.9531 209.6094,506.5625 L209.6094,508.0156 Q209.6094,508.625 209.375,508.8906 Q209.1406,509.1563 208.7656,509.1563 Q208.4219,509.1563 208.2188,508.9531 Q208.0156,508.7656 207.9063,508.25 Q207.8594,507.8906 207.6719,507.7031 Q207.3438,507.3281 206.7344,507.1094 Q206.125,506.8906 205.5,506.8906 Q204.7344,506.8906 204.0938,507.2188 Q203.4688,507.5469 202.9688,508.2969 Q202.4844,509.0469 202.4844,510.0781 L202.4844,511.1719 Q202.4844,512.4063 203.375,513.2344 Q204.2656,514.0469 205.8594,514.0469 Q206.7969,514.0469 207.4531,513.7969 Q207.8438,513.6406 208.2656,513.2031 Q208.5313,512.9375 208.6719,512.8594 Q208.8281,512.7813 209.0313,512.7813 Q209.3594,512.7813 209.6094,513.0469 Q209.875,513.2969 209.875,513.6406 Q209.875,513.9844 209.5313,514.3906 Q209.0313,514.9688 208.2344,515.2969 Q207.1563,515.75 205.8594,515.75 Q204.3438,515.75 203.1406,515.125 Q202.1563,514.625 201.4688,513.5625 Q200.7813,512.4844 200.7813,511.2031 L200.7813,510.0469 Q200.7813,508.7188 201.3906,507.5781 Q202.0156,506.4219 203.1094,505.8125 Q204.2031,505.1875 205.4375,505.1875 Q206.1719,505.1875 206.8125,505.3594 Q207.4688,505.5156 208.0156,505.875 Z " fill="#000000"/><text fill="#000000" font-family="sans-serif" font-size="14" lengthAdjust="spacing" textLength="38" x="225.75" y="515.7285">Board</text><line style="stroke:#181818;stroke-width:0.5;" x1="126.5" x2="330.5" y1="526" y2="526"/><rect fill="none" height="6" style="stroke:#C82930;stroke-width:1.0;" width="6" x="133.5" y="537.3047"/><text fill="#000000" font-family="sans-serif" font-size="14" lengthAdjust="spacing" textLength="180" x="145.5" y="544.5332">quarters: QuarterBoard[2][2]</text><line style="stroke:#181818;stroke-width:0.5;" x1="126.5" x2="330.5" y1="551.6094" y2="551.6094"/><ellipse cx="136.5" cy="565.9141" fill="#84BE84" rx="3" ry="3" style="stroke:#038048;stroke-width:1.0;"/><text fill="#000000" font-family="sans-serif" font-size="14" lengthAdjust="spacing" textLength="48" x="145.5" y="570.1426">Board()</text><ellipse cx="136.5" cy="583.5234" fill="#84BE84" rx="3" ry="3" style="stroke:#038048;stroke-width:1.0;"/><text fill="#000000" font-family="sans-serif" font-size="14" lengthAdjust="spacing" textLength="179" x="145.5" y="587.752">getFrame(int x, int y): Frame</text><ellipse cx="136.5" cy="601.1328" fill="#84BE84" rx="3" ry="3" style="stroke:#038048;stroke-width:1.0;"/><text fill="#000000" font-family="sans-serif" font-size="14" lengthAdjust="spacing" textLength="101" x="145.5" y="605.3613">generate(): void</text></g><!--class Robot--><g id="elem_Robot"><rect codeLine="59" fill="#F1F1F1" height="224.0938" id="Robot" rx="2.5" ry="2.5" style="stroke:#181818;stroke-width:0.5;" width="263" x="331" y="716"/><ellipse cx="439.25" cy="732" fill="#ADD1B2" rx="11" ry="11" style="stroke:#181818;stroke-width:1.0;"/><path d="M442.0156,727.875 Q442.1719,727.6563 442.3594,727.5469 Q442.5469,727.4375 442.7656,727.4375 Q443.1406,727.4375 443.375,727.7031 Q443.6094,727.9531 443.6094,728.5625 L443.6094,730.0156 Q443.6094,730.625 443.375,730.8906 Q443.1406,731.1563 442.7656,731.1563 Q442.4219,731.1563 442.2188,730.9531 Q442.0156,730.7656 441.9063,730.25 Q441.8594,729.8906 441.6719,729.7031 Q441.3438,729.3281 440.7344,729.1094 Q440.125,728.8906 439.5,728.8906 Q438.7344,728.8906 438.0938,729.2188 Q437.4688,729.5469 436.9688,730.2969 Q436.4844,731.0469 436.4844,732.0781 L436.4844,733.1719 Q436.4844,734.4063 437.375,735.2344 Q438.2656,736.0469 439.8594,736.0469 Q440.7969,736.0469 441.4531,735.7969 Q441.8438,735.6406 442.2656,735.2031 Q442.5313,734.9375 442.6719,734.8594 Q442.8281,734.7813 443.0313,734.7813 Q443.3594,734.7813 443.6094,735.0469 Q443.875,735.2969 443.875,735.6406 Q443.875,735.9844 443.5313,736.3906 Q443.0313,736.9688 442.2344,737.2969 Q441.1563,737.75 439.8594,737.75 Q438.3438,737.75 437.1406,737.125 Q436.1563,736.625 435.4688,735.5625 Q434.7813,734.4844 434.7813,733.2031 L434.7813,732.0469 Q434.7813,730.7188 435.3906,729.5781 Q436.0156,728.4219 437.1094,727.8125 Q438.2031,727.1875 439.4375,727.1875 Q440.1719,727.1875 440.8125,727.3594 Q441.4688,727.5156 442.0156,727.875 Z " fill="#000000"/><text fill="#000000" font-family="sans-serif" font-size="14" lengthAdjust="spacing" textLength="38" x="459.75" y="737.7285">Robot</text><line style="stroke:#181818;stroke-width:0.5;" x1="332" x2="593" y1="748" y2="748"/><rect fill="none" height="6" style="stroke:#C82930;stroke-width:1.0;" width="6" x="339" y="759.3047"/><text fill="#000000" font-family="sans-serif" font-size="14" lengthAdjust="spacing" textLength="73" x="351" y="766.5332">color: Color</text><rect fill="none" height="6" style="stroke:#C82930;stroke-width:1.0;" width="6" x="339" y="776.9141"/><text fill="#000000" font-family="sans-serif" font-size="14" lengthAdjust="spacing" textLength="108" x="351" y="784.1426">position: std::pair</text><line style="stroke:#181818;stroke-width:0.5;" x1="332" x2="593" y1="791.2188" y2="791.2188"/><ellipse cx="342" cy="805.5234" fill="#84BE84" rx="3" ry="3" style="stroke:#038048;stroke-width:1.0;"/><text fill="#000000" font-family="sans-serif" font-size="14" lengthAdjust="spacing" textLength="237" x="351" y="809.752">Robot(color: Color, position: std::pair)</text><ellipse cx="342" cy="823.1328" fill="#84BE84" rx="3" ry="3" style="stroke:#038048;stroke-width:1.0;"/><text fill="#000000" font-family="sans-serif" font-size="14" lengthAdjust="spacing" textLength="196" x="351" y="827.3613">Robot(color: Color, x: int, y: int)</text><ellipse cx="342" cy="840.7422" fill="#84BE84" rx="3" ry="3" style="stroke:#038048;stroke-width:1.0;"/><text fill="#000000" font-family="sans-serif" font-size="14" lengthAdjust="spacing" textLength="106" x="351" y="844.9707">getColor(): Color</text><ellipse cx="342" cy="858.3516" fill="#84BE84" rx="3" ry="3" style="stroke:#038048;stroke-width:1.0;"/><text fill="#000000" font-family="sans-serif" font-size="14" lengthAdjust="spacing" textLength="139" x="351" y="862.5801">getPosition(): std::pair</text><ellipse cx="342" cy="875.9609" fill="#84BE84" rx="3" ry="3" style="stroke:#038048;stroke-width:1.0;"/><text fill="#000000" font-family="sans-serif" font-size="14" lengthAdjust="spacing" textLength="61" x="351" y="880.1895">getX(): int</text><ellipse cx="342" cy="893.5703" fill="#84BE84" rx="3" ry="3" style="stroke:#038048;stroke-width:1.0;"/><text fill="#000000" font-family="sans-serif" font-size="14" lengthAdjust="spacing" textLength="62" x="351" y="897.7988">getY(): int</text><ellipse cx="342" cy="911.1797" fill="#84BE84" rx="3" ry="3" style="stroke:#038048;stroke-width:1.0;"/><text fill="#000000" font-family="sans-serif" font-size="14" lengthAdjust="spacing" textLength="137" x="351" y="915.4082">move(int x, int y): void</text><text fill="#000000" font-family="sans-serif" font-size="14" lengthAdjust="spacing" textLength="134" x="351" y="933.0176">getEmoji(): std::string</text></g><!--class Player--><g id="elem_Player"><rect codeLine="72" fill="#F1F1F1" height="206.4844" id="Player" rx="2.5" ry="2.5" style="stroke:#181818;stroke-width:0.5;" width="254" x="476.5" y="450"/><ellipse cx="579.25" cy="466" fill="#ADD1B2" rx="11" ry="11" style="stroke:#181818;stroke-width:1.0;"/><path d="M582.0156,461.875 Q582.1719,461.6563 582.3594,461.5469 Q582.5469,461.4375 582.7656,461.4375 Q583.1406,461.4375 583.375,461.7031 Q583.6094,461.9531 583.6094,462.5625 L583.6094,464.0156 Q583.6094,464.625 583.375,464.8906 Q583.1406,465.1563 582.7656,465.1563 Q582.4219,465.1563 582.2188,464.9531 Q582.0156,464.7656 581.9063,464.25 Q581.8594,463.8906 581.6719,463.7031 Q581.3438,463.3281 580.7344,463.1094 Q580.125,462.8906 579.5,462.8906 Q578.7344,462.8906 578.0938,463.2188 Q577.4688,463.5469 576.9688,464.2969 Q576.4844,465.0469 576.4844,466.0781 L576.4844,467.1719 Q576.4844,468.4063 577.375,469.2344 Q578.2656,470.0469 579.8594,470.0469 Q580.7969,470.0469 581.4531,469.7969 Q581.8438,469.6406 582.2656,469.2031 Q582.5313,468.9375 582.6719,468.8594 Q582.8281,468.7813 583.0313,468.7813 Q583.3594,468.7813 583.6094,469.0469 Q583.875,469.2969 583.875,469.6406 Q583.875,469.9844 583.5313,470.3906 Q583.0313,470.9688 582.2344,471.2969 Q581.1563,471.75 579.8594,471.75 Q578.3438,471.75 577.1406,471.125 Q576.1563,470.625 575.4688,469.5625 Q574.7813,468.4844 574.7813,467.2031 L574.7813,466.0469 Q574.7813,464.7188 575.3906,463.5781 Q576.0156,462.4219 577.1094,461.8125 Q578.2031,461.1875 579.4375,461.1875 Q580.1719,461.1875 580.8125,461.3594 Q581.4688,461.5156 582.0156,461.875 Z " fill="#000000"/><text fill="#000000" font-family="sans-serif" font-size="14" lengthAdjust="spacing" textLength="40" x="599.75" y="471.7285">Player</text><line style="stroke:#181818;stroke-width:0.5;" x1="477.5" x2="729.5" y1="482" y2="482"/><rect fill="none" height="6" style="stroke:#C82930;stroke-width:1.0;" width="6" x="484.5" y="493.3047"/><text fill="#000000" font-family="sans-serif" font-size="14" lengthAdjust="spacing" textLength="105" x="496.5" y="500.5332">name: std::string</text><rect fill="none" height="6" style="stroke:#C82930;stroke-width:1.0;" width="6" x="484.5" y="510.9141"/><text fill="#000000" font-family="sans-serif" font-size="14" lengthAdjust="spacing" textLength="85" x="496.5" y="518.1426">prediction: int</text><rect fill="none" height="6" style="stroke:#C82930;stroke-width:1.0;" width="6" x="484.5" y="528.5234"/><text fill="#000000" font-family="sans-serif" font-size="14" lengthAdjust="spacing" textLength="58" x="496.5" y="535.752">score: int</text><line style="stroke:#181818;stroke-width:0.5;" x1="477.5" x2="729.5" y1="542.8281" y2="542.8281"/><ellipse cx="487.5" cy="557.1328" fill="#84BE84" rx="3" ry="3" style="stroke:#038048;stroke-width:1.0;"/><text fill="#000000" font-family="sans-serif" font-size="14" lengthAdjust="spacing" textLength="155" x="496.5" y="561.3613">Player(name: std::string)</text><ellipse cx="487.5" cy="574.7422" fill="#84BE84" rx="3" ry="3" style="stroke:#038048;stroke-width:1.0;"/><text fill="#000000" font-family="sans-serif" font-size="14" lengthAdjust="spacing" textLength="136" x="496.5" y="578.9707">getName(): std::string</text><ellipse cx="487.5" cy="592.3516" fill="#84BE84" rx="3" ry="3" style="stroke:#038048;stroke-width:1.0;"/><text fill="#000000" font-family="sans-serif" font-size="14" lengthAdjust="spacing" textLength="116" x="496.5" y="596.5801">getPrediction(): int</text><ellipse cx="487.5" cy="609.9609" fill="#84BE84" rx="3" ry="3" style="stroke:#038048;stroke-width:1.0;"/><text fill="#000000" font-family="sans-serif" font-size="14" lengthAdjust="spacing" textLength="211" x="496.5" y="614.1895">setPrediction(prediction: int): void</text><ellipse cx="487.5" cy="627.5703" fill="#84BE84" rx="3" ry="3" style="stroke:#038048;stroke-width:1.0;"/><text fill="#000000" font-family="sans-serif" font-size="14" lengthAdjust="spacing" textLength="90" x="496.5" y="631.7988">getScore(): int</text><ellipse cx="487.5" cy="645.1797" fill="#84BE84" rx="3" ry="3" style="stroke:#038048;stroke-width:1.0;"/><text fill="#000000" font-family="sans-serif" font-size="14" lengthAdjust="spacing" textLength="228" x="496.5" y="649.4082">incrementScore(points: int = 1): void</text></g><!--class GameManager--><g id="elem_GameManager"><rect codeLine="84" fill="#F1F1F1" height="382.5781" id="GameManager" rx="2.5" ry="2.5" style="stroke:#181818;stroke-width:0.5;" width="249" x="299" y="7"/><ellipse cx="372.25" cy="23" fill="#ADD1B2" rx="11" ry="11" style="stroke:#181818;stroke-width:1.0;"/><path d="M375.0156,18.875 Q375.1719,18.6563 375.3594,18.5469 Q375.5469,18.4375 375.7656,18.4375 Q376.1406,18.4375 376.375,18.7031 Q376.6094,18.9531 376.6094,19.5625 L376.6094,21.0156 Q376.6094,21.625 376.375,21.8906 Q376.1406,22.1563 375.7656,22.1563 Q375.4219,22.1563 375.2188,21.9531 Q375.0156,21.7656 374.9063,21.25 Q374.8594,20.8906 374.6719,20.7031 Q374.3438,20.3281 373.7344,20.1094 Q373.125,19.8906 372.5,19.8906 Q371.7344,19.8906 371.0938,20.2188 Q370.4688,20.5469 369.9688,21.2969 Q369.4844,22.0469 369.4844,23.0781 L369.4844,24.1719 Q369.4844,25.4063 370.375,26.2344 Q371.2656,27.0469 372.8594,27.0469 Q373.7969,27.0469 374.4531,26.7969 Q374.8438,26.6406 375.2656,26.2031 Q375.5313,25.9375 375.6719,25.8594 Q375.8281,25.7813 376.0313,25.7813 Q376.3594,25.7813 376.6094,26.0469 Q376.875,26.2969 376.875,26.6406 Q376.875,26.9844 376.5313,27.3906 Q376.0313,27.9688 375.2344,28.2969 Q374.1563,28.75 372.8594,28.75 Q371.3438,28.75 370.1406,28.125 Q369.1563,27.625 368.4688,26.5625 Q367.7813,25.4844 367.7813,24.2031 L367.7813,23.0469 Q367.7813,21.7188 368.3906,20.5781 Q369.0156,19.4219 370.1094,18.8125 Q371.2031,18.1875 372.4375,18.1875 Q373.1719,18.1875 373.8125,18.3594 Q374.4688,18.5156 375.0156,18.875 Z " fill="#000000"/><text fill="#000000" font-family="sans-serif" font-size="14" lengthAdjust="spacing" textLength="94" x="392.75" y="28.7285">GameManager</text><line style="stroke:#181818;stroke-width:0.5;" x1="300" x2="547" y1="39" y2="39"/><rect fill="none" height="6" style="stroke:#C82930;stroke-width:1.0;" width="6" x="307" y="50.3047"/><text fill="#000000" font-family="sans-serif" font-size="14" lengthAdjust="spacing" textLength="84" x="319" y="57.5332">goal_tile: Tile</text><rect fill="none" height="6" style="stroke:#C82930;stroke-width:1.0;" width="6" x="307" y="67.9141"/><text fill="#000000" font-family="sans-serif" font-size="14" lengthAdjust="spacing" textLength="83" x="319" y="75.1426">board: Board</text><rect fill="none" height="6" style="stroke:#C82930;stroke-width:1.0;" width="6" x="307" y="85.5234"/><text fill="#000000" font-family="sans-serif" font-size="14" lengthAdjust="spacing" textLength="181" x="319" y="92.752">players: std::vector&lt;Player*&gt;</text><rect fill="none" height="6" style="stroke:#C82930;stroke-width:1.0;" width="6" x="307" y="103.1328"/><text fill="#000000" font-family="sans-serif" font-size="14" lengthAdjust="spacing" textLength="173" x="319" y="110.3613">robots: std::vector&lt;Robot*&gt;</text><line style="stroke:#181818;stroke-width:0.5;" x1="300" x2="547" y1="117.4375" y2="117.4375"/><ellipse cx="310" cy="131.7422" fill="#84BE84" rx="3" ry="3" style="stroke:#038048;stroke-width:1.0;"/><text fill="#000000" font-family="sans-serif" font-size="14" lengthAdjust="spacing" textLength="104" x="319" y="135.9707">GameManager()</text><text fill="#000000" font-family="sans-serif" font-size="14" lengthAdjust="spacing" textLength="4" x="319" y="153.5801">&#160;</text><ellipse cx="310" cy="166.9609" fill="#84BE84" rx="3" ry="3" style="stroke:#038048;stroke-width:1.0;"/><text fill="#000000" font-family="sans-serif" font-size="14" lengthAdjust="spacing" textLength="119" x="319" y="171.1895">getGoalTile(): Tile*</text><ellipse cx="310" cy="184.5703" fill="#84BE84" rx="3" ry="3" style="stroke:#038048;stroke-width:1.0;"/><text fill="#000000" font-family="sans-serif" font-size="14" lengthAdjust="spacing" textLength="212" x="319" y="188.7988">getPlayers(): std::vector&lt;Player*&gt;</text><ellipse cx="310" cy="202.1797" fill="#84BE84" rx="3" ry="3" style="stroke:#038048;stroke-width:1.0;"/><text fill="#000000" font-family="sans-serif" font-size="14" lengthAdjust="spacing" textLength="175" x="319" y="206.4082">getPlayer(int index): Player*</text><ellipse cx="310" cy="219.7891" fill="#84BE84" rx="3" ry="3" style="stroke:#038048;stroke-width:1.0;"/><text fill="#000000" font-family="sans-serif" font-size="14" lengthAdjust="spacing" textLength="119" x="319" y="224.0176">getBoard(): Board*</text><text fill="#000000" font-family="sans-serif" font-size="14" lengthAdjust="spacing" textLength="4" x="319" y="241.627">&#160;</text><ellipse cx="310" cy="255.0078" fill="#84BE84" rx="3" ry="3" style="stroke:#038048;stroke-width:1.0;"/><text fill="#000000" font-family="sans-serif" font-size="14" lengthAdjust="spacing" textLength="200" x="319" y="259.2363">addPlayer(player: Player*): void</text><ellipse cx="310" cy="272.6172" fill="#84BE84" rx="3" ry="3" style="stroke:#038048;stroke-width:1.0;"/><text fill="#000000" font-family="sans-serif" font-size="14" lengthAdjust="spacing" textLength="223" x="319" y="276.8457">removePlayer(player: Player*): void</text><ellipse cx="310" cy="290.2266" fill="#84BE84" rx="3" ry="3" style="stroke:#038048;stroke-width:1.0;"/><text fill="#000000" font-family="sans-serif" font-size="14" lengthAdjust="spacing" textLength="162" x="319" y="294.4551">displayBoard(): std::string</text><ellipse cx="310" cy="307.8359" fill="#84BE84" rx="3" ry="3" style="stroke:#038048;stroke-width:1.0;"/><text fill="#000000" font-family="sans-serif" font-size="14" lengthAdjust="spacing" textLength="121" x="319" y="312.0645">setupRound(): void</text><ellipse cx="310" cy="325.4453" fill="#84BE84" rx="3" ry="3" style="stroke:#038048;stroke-width:1.0;"/><text fill="#000000" font-family="sans-serif" font-size="14" lengthAdjust="spacing" textLength="202" x="319" y="329.6738">processPredictionsInputs(): void</text><ellipse cx="310" cy="343.0547" fill="#84BE84" rx="3" ry="3" style="stroke:#038048;stroke-width:1.0;"/><text fill="#000000" font-family="sans-serif" font-size="14" lengthAdjust="spacing" textLength="201" x="319" y="347.2832">sortPlayersByPredictions(): void</text><ellipse cx="310" cy="360.6641" fill="#84BE84" rx="3" ry="3" style="stroke:#038048;stroke-width:1.0;"/><text fill="#000000" font-family="sans-serif" font-size="14" lengthAdjust="spacing" textLength="112" x="319" y="364.8926">playRound(): void</text><ellipse cx="310" cy="378.2734" fill="#84BE84" rx="3" ry="3" style="stroke:#038048;stroke-width:1.0;"/><text fill="#000000" font-family="sans-serif" font-size="14" lengthAdjust="spacing" textLength="135" x="319" y="382.502">displayResults(): void</text></g><!--link Frame to Tile--><g id="link_Frame_Tile"><path codeLine="107" d="M206.76,1171.12 C219.61,1190.8 233.21,1211.62 245.8,1230.9 " fill="none" id="Frame-Tile" style="stroke:#181818;stroke-width:1.0;"/></g><!--reverse link QuarterBoard to Frame--><g id="link_QuarterBoard_Frame"><path codeLine="108" d="M151.5,917.31 C151.5,947.02 151.5,969.17 151.5,999.65 " fill="none" id="QuarterBoard-backto-Frame" style="stroke:#181818;stroke-width:1.0;"/><polygon fill="#181818" points="151.5,905.31,147.5,911.31,151.5,917.31,155.5,911.31,151.5,905.31" style="stroke:#181818;stroke-width:1.0;"/><text fill="#000000" font-family="sans-serif" font-size="13" lengthAdjust="spacing" textLength="7" x="144.1992" y="926.1663">1</text><text fill="#000000" font-family="sans-serif" font-size="13" lengthAdjust="spacing" textLength="14" x="136.8984" y="989.0836">16</text></g><!--reverse link Board to QuarterBoard--><g id="link_Board_QuarterBoard"><path codeLine="109" d="M208.8218,623.7792 C197.4018,664.2592 185.33,707.06 172.95,750.96 " fill="none" id="Board-backto-QuarterBoard" style="stroke:#181818;stroke-width:1.0;"/><polygon fill="#181818" points="212.08,612.23,206.6012,616.9185,208.8218,623.7792,214.3006,619.0907,212.08,612.23" style="stroke:#181818;stroke-width:1.0;"/><text fill="#000000" font-family="sans-serif" font-size="13" lengthAdjust="spacing" textLength="7" x="202.6523" y="633.9135">1</text><text fill="#000000" font-family="sans-serif" font-size="13" lengthAdjust="spacing" textLength="7" x="167.717" y="740.1182">4</text></g><!--reverse link GameManager to Player--><g id="link_GameManager_Player"><path codeLine="110" d="M526.3342,400.8788 C536.7642,421.3188 541.62,430.81 551.22,449.62 " fill="none" id="GameManager-backto-Player" style="stroke:#181818;stroke-width:1.0;"/><polygon fill="#181818" points="520.88,390.19,520.0442,397.3525,526.3342,400.8788,527.1701,393.7163,520.88,390.19" style="stroke:#181818;stroke-width:1.0;"/><text fill="#000000" font-family="sans-serif" font-size="13" lengthAdjust="spacing" textLength="7" x="517.2538" y="410.8754">1</text><text fill="#000000" font-family="sans-serif" font-size="13" lengthAdjust="spacing" textLength="7" x="540.298" y="439.279">n</text></g><!--reverse link GameManager to Robot--><g id="link_GameManager_Robot"><path codeLine="111" d="M436.1041,402.3069 C442.7241,508.8569 450,625.89 455.6,715.95 " fill="none" id="GameManager-backto-Robot" style="stroke:#181818;stroke-width:1.0;"/><polygon fill="#181818" points="435.36,390.33,431.7398,396.5665,436.1041,402.3069,439.7244,396.0704,435.36,390.33" style="stroke:#181818;stroke-width:1.0;"/><text fill="#000000" font-family="sans-serif" font-size="13" lengthAdjust="spacing" textLength="7" x="428.6604" y="411.0204">1</text><text fill="#000000" font-family="sans-serif" font-size="13" lengthAdjust="spacing" textLength="7" x="447.8688" y="705.0132">4</text></g><!--reverse link GameManager to Board--><g id="link_GameManager_Board"><path codeLine="112" d="M312.2014,400.6905 C291.2914,438.4905 276.69,464.9 260.64,493.89 " fill="none" id="GameManager-backto-Board" style="stroke:#181818;stroke-width:1.0;"/><polygon fill="#181818" points="318.01,390.19,311.6055,393.504,312.2014,400.6905,318.6059,397.3764,318.01,390.19" style="stroke:#181818;stroke-width:1.0;"/><text fill="#000000" font-family="sans-serif" font-size="13" lengthAdjust="spacing" textLength="7" x="307.0932" y="410.8754">1</text><text fill="#000000" font-family="sans-serif" font-size="13" lengthAdjust="spacing" textLength="7" x="257.1305" y="483.2008">1</text></g><!--link Robot to Color--><g id="link_Robot_Color"><path codeLine="113" d="M458.1,940.26 C452.45,1083.33 442.8,1327.33 438.15,1444.84 " fill="none" id="Robot-Color" style="stroke:#181818;stroke-width:1.0;"/></g><!--link Tile to Color--><g id="link_Tile_Color"><path codeLine="114" d="M348.03,1385.17 C364.4,1408.91 382.13,1434.62 397.33,1456.65 " fill="none" id="Tile-Color" style="stroke:#181818;stroke-width:1.0;"/></g><!--link Tile to Shape--><g id="link_Tile_Shape"><path codeLine="115" d="M295.5,1385.17 C295.5,1407.89 295.5,1432.43 295.5,1453.81 " fill="none" id="Tile-Shape" style="stroke:#181818;stroke-width:1.0;"/></g><!--link Frame to Direction--><g id="link_Frame_Direction"><path codeLine="116" d="M132.7,1171.12 C126.92,1197.11 120.7,1225.11 115.41,1248.9 " fill="none" id="Frame-Direction" style="stroke:#181818;stroke-width:1.0;"/></g><!--SRC=[bLLHQzim47xFhp1vihFaeQECORP1qhfP84rRDwKhfGpLrZ8DH_8aEwqP- - -JJcTRThAk2m7RTz_TVNVw955URhqJaGdf_Hfu-ZTRtaJm4aUdyBoBbikBMtYTnr6qiixfOZNJrj-30JKPhh-Jd6A6TRoOhkPBc-NwwcOQszUJHNnIMzVJk8azPP8c1HCSusykuN5wSMjhBQEpjIswc7zUcx0a8qfvQvRL9ITUObe8RITeKePJQAc1wGs4-2vqt4452DlG0hn-u6O4E-2CtKshxT5M_636heeq35KX6T-qLCyasRPS2yqY12uZj3oHB5EXzoX4Td_yW5aXo0ywNqxek1Vba8Ss0xS4c6yDtjYxTHB2pyME-ccz3c6x90XkExagYIoed0aYqwOXbeOUumL-VJDCDIzWVF_-GV-naXliOz3u4DxfPP4QndLsCDbHQ9FtF3OUhmem6Z4apxFgkjhIGbOcsgtRjjBjuQV5g2xw_ks3_cDQoplu3o8Rogaa1Ip6JZ2dU2mUHV6IUdEXc5qCK5HEMAr22Esf-00wU07-ZAEluFaAsLzY_aRX3X_j_hAtHdTTozO8h3Se68Xn_tFxN6QaehAP5jS3xY9nP9Ac31NSob4bGb8mU4Z6flFtqZXpMC7MsozYXz7KwJQfEguU6xTXUv8ONjq4Z2UIRYb7NowqIrdg7xsZFGtDDSbpmid6cSr6aEnhUqgWzT4eDxG2heS5Gr3OuavlTo4_sCcCFY566kdq820dZK3A3WVS6Ms7SytbBqUHBQIQ4H-gxm11Eeodz5a78AZ5uBx4_aOk2vAccC7ssqHtbqDFNGlqDSYKAUDlIkuBHAkWp6DHyjJlXkPI95IfLY9gmVEoK3sO4h8UpwnomFri6dAe2XACgIep9xSMZRs49XCh3FirF7etz2PbFXdfrs7teBJdep6FTD3mkETsrTU0-137TjYjSu1-3dlrqwQsXwCssLC8BlgzBti1DqqrLzPWy0S0]--></g></svg>