<?xml version="1.0" encoding="us-ascii" standalone="no"?><svg xmlns="http://www.w3.org/2000/svg" xmlns:xlink="http://www.w3.org/1999/xlink" contentStyleType="text/css" height="450px" preserveAspectRatio="none" style="width:818px;height:450px;background:#FFFFFF;" version="1.1" viewBox="0 0 818 450" width="818px" zoomAndPan="magnify"><defs/><g><!--cluster Jeu--><g id="cluster_Jeu"><rect fill="none" height="437" rx="2.5" ry="2.5" style="stroke:#181818;stroke-width:1.0;" width="541" x="109" y="7"/><text fill="#000000" font-family="sans-serif" font-size="14" font-weight="bold" lengthAdjust="spacing" textLength="22" x="368.5" y="23.9659">Jeu</text></g><!--cluster Plateau--><g id="cluster_Plateau"><rect fill="none" height="167" rx="2.5" ry="2.5" style="stroke:#181818;stroke-width:1.0;" width="216" x="142" y="101"/><text fill="#000000" font-family="sans-serif" font-size="14" font-weight="bold" lengthAdjust="spacing" textLength="52" x="224" y="117.9659">Plateau</text></g><g id="elem_UC1"><ellipse cx="249.796" cy="402.9592" fill="#F1F1F1" rx="112.796" ry="24.9592" style="stroke:#181818;stroke-width:0.5;"/><text fill="#000000" font-family="sans-serif" font-size="14" lengthAdjust="spacing" textLength="185" x="154.296" y="407.6922">R&#233;flexion (Attente annonce)</text></g><g id="elem_UC2"><ellipse cx="250.2285" cy="314.9457" fill="#F1F1F1" rx="125.2285" ry="27.4457" style="stroke:#181818;stroke-width:0.5;"/><text fill="#000000" font-family="sans-serif" font-size="14" lengthAdjust="spacing" textLength="213" x="142.4259" y="318.9925">Annonce (d&#233;marrage minuteur)</text></g><g id="elem_UC3"><ellipse cx="250.2113" cy="65.0423" fill="#F1F1F1" rx="85.7113" ry="19.5423" style="stroke:#181818;stroke-width:0.5;"/><text fill="#000000" font-family="sans-serif" font-size="14" lengthAdjust="spacing" textLength="119" x="187.7113" y="69.7752">Saisie pr&#233;dictions</text></g><g id="elem_UC3_1"><ellipse cx="534.6173" cy="157.8235" fill="#F1F1F1" rx="99.6173" ry="22.3235" style="stroke:#181818;stroke-width:0.5;"/><text fill="#000000" font-family="sans-serif" font-size="14" lengthAdjust="spacing" textLength="154" x="454.6173" y="162.5564">Traitement pr&#233;dictions</text></g><g id="elem_UC4"><ellipse cx="249.7885" cy="234.1577" fill="#F1F1F1" rx="78.7885" ry="18.1577" style="stroke:#181818;stroke-width:0.5;"/><text fill="#000000" font-family="sans-serif" font-size="14" lengthAdjust="spacing" textLength="100" x="196.7885" y="238.8907">D&#233;placer robot</text></g><g id="elem_UC5"><ellipse cx="249.9109" cy="159.7822" fill="#F1F1F1" rx="91.9109" ry="20.7822" style="stroke:#181818;stroke-width:0.5;"/><text fill="#000000" font-family="sans-serif" font-size="14" lengthAdjust="spacing" textLength="135" x="179.4109" y="164.5152">V&#233;rification R&#233;sultat</text></g><!--entity player--><g id="elem_player"><ellipse cx="35.5" cy="284" fill="#F1F1F1" rx="8" ry="8" style="stroke:#181818;stroke-width:0.5;"/><path d="M35.5,292 L35.5,319 M22.5,300 L48.5,300 M35.5,319 L22.5,334 M35.5,319 L48.5,334 " fill="none" style="stroke:#181818;stroke-width:0.5;"/><text fill="#000000" font-family="sans-serif" font-size="14" lengthAdjust="spacing" textLength="59" x="6" y="350.4659">Joueur(s)</text></g><!--entity selected_player--><g id="elem_selected_player"><ellipse cx="752.5" cy="165" fill="#F1F1F1" rx="8" ry="8" style="stroke:#181818;stroke-width:0.5;"/><path d="M752.5,173 L752.5,200 M739.5,181 L765.5,181 M752.5,200 L739.5,215 M752.5,200 L765.5,215 " fill="none" style="stroke:#181818;stroke-width:0.5;"/><text fill="#000000" font-family="sans-serif" font-size="14" lengthAdjust="spacing" textLength="117" x="694" y="231.4659">Joueur Selection&#233;</text></g><!--link player to UC1--><g id="link_player_UC1"><path d="M65.12,337.97 C75.89,345.79 88.56,354.05 101,360 C122.61,370.33 141.4196,377.046 164.2696,383.556 " fill="none" id="player-to-UC1" style="stroke:#181818;stroke-width:1.0;"/><polygon fill="#181818" points="170.04,385.2,162.4804,378.8871,165.2313,383.83,160.2884,386.5809,170.04,385.2" style="stroke:#181818;stroke-width:1.0;"/></g><!--link player to UC2--><g id="link_player_UC2"><path d="M65.16,315 C81.25,315 96.55,315 118.94,315 " fill="none" id="player-to-UC2" style="stroke:#181818;stroke-width:1.0;"/><polygon fill="#181818" points="124.94,315,115.94,311,119.94,315,115.94,319,124.94,315" style="stroke:#181818;stroke-width:1.0;"/></g><!--link player to UC3--><g id="link_player_UC3"><path d="M39.99,275.4 C45.77,232.64 61,165.03 101,123 C122.88,100.01 149.2163,87.6715 177.9263,79.1815 " fill="none" id="player-to-UC3" style="stroke:#181818;stroke-width:1.0;"/><polygon fill="#181818" points="183.68,77.48,173.9151,76.1964,178.8853,78.8979,176.1838,83.868,183.68,77.48" style="stroke:#181818;stroke-width:1.0;"/></g><!--link UC3 to UC3_1--><g id="link_UC3_UC3_1"><path d="M299.56,80.99 C348.94,97.24 419.671,120.5234 471.631,137.6334 " fill="none" id="UC3-to-UC3_1" style="stroke:#181818;stroke-width:1.0;"/><polygon fill="#181818" points="477.33,139.51,470.0326,132.8957,472.5809,137.9461,467.5305,140.4944,477.33,139.51" style="stroke:#181818;stroke-width:1.0;"/></g><!--link UC3_1 to selected_player--><g id="link_UC3_1_selected_player"><path d="M613.48,171.72 C640.07,176.4 663.3807,180.5008 688.0607,184.8408 " fill="none" id="UC3_1-to-selected_player" style="stroke:#181818;stroke-width:1.0;"/><polygon fill="#181818" points="693.97,185.88,685.7988,180.3817,689.0456,185.014,684.4132,188.2608,693.97,185.88" style="stroke:#181818;stroke-width:1.0;"/></g><!--reverse link UC4 to selected_player--><g id="link_UC4_selected_player"><path d="M334.8677,232.2956 C416.9477,230.0456 543.9,224.8 658,212 C669.62,210.7 681.99,208.88 693.79,206.95 " fill="none" id="UC4-backto-selected_player" style="stroke:#181818;stroke-width:1.0;"/><polygon fill="#181818" points="328.87,232.46,337.9762,236.2119,333.8681,232.323,337.757,228.2149,328.87,232.46" style="stroke:#181818;stroke-width:1.0;"/></g><!--reverse link UC5 to UC4--><g id="link_UC5_UC4"><path d="M250,187.36 C250,198.83 250,204.31 250,215.79 " fill="none" id="UC5-backto-UC4" style="stroke:#181818;stroke-width:1.0;"/><polygon fill="#181818" points="250,181.36,246,190.36,250,186.36,254,190.36,250,181.36" style="stroke:#181818;stroke-width:1.0;"/></g><!--link UC5 to UC3_1--><g id="link_UC5_UC3_1"><path d="M342.33,159.35 C371.83,159.14 398.6601,158.952 428.6801,158.742 " fill="none" id="UC5-to-UC3_1" style="stroke:#181818;stroke-width:1.0;"/><polygon fill="#181818" points="434.68,158.7,425.6522,154.7631,429.6801,158.735,425.7082,162.7629,434.68,158.7" style="stroke:#181818;stroke-width:1.0;"/><text fill="#000000" font-family="sans-serif" font-size="13" lengthAdjust="spacing" textLength="47" x="380.158" y="173.1899">Si &#233;chec</text></g><!--SRC=[RP6_QiCm4CPtFSNXAHqo9B7NGcYdJALkkuQhV7O4YXIaCxIKF92UGozMMOwf7Re8Fjtlkx-QMWQsu5HtOcYK8ydA6e6IhOFYO7lgtSe_580UBXg_oIrZK9CUFJ5ao6TDpV563ndHT9hWG3ty283UaqHFKBp6q6hwIbvOxPd9C04QOusaiU3xqsRExySOh9eOpkWSTWHdPNfEVKo6xTnGe_AAuE9YQ5Hkqj-mtHnxSwYOpgd-l-Xn8nBzDyUBHYOSPvbbUOuXZIp9WREVbc_kSWbznE1KgoGE5I0jmFUQSOAh15_5LOXnTx1UF-OTBEHsANT2f6SIgTVyPdr_2d7t0MkTpf-DPRALCrqDMQkSfQWLn21F98jf6xy0]--></g></svg>